<svg width="214" height="134" viewBox="0 0 214 134" fill="none" xmlns="http://www.w3.org/2000/svg">
<path fill-rule="evenodd" clip-rule="evenodd" d="M137.1 4.95779C115.206 2.52197 83.0848 2.51545 56.4686 4.83549C43.1629 5.9953 31.1962 7.73951 22.5563 10.0651C19.7845 10.8112 17.3351 11.6223 15.2848 12.5025C13.5598 12.5499 11.9798 12.5593 10.5618 12.5244L10.5496 12.5241C10.2418 10.851 9.85561 9.45851 9.36906 8.41419C8.87022 7.34351 8.18578 6.46392 7.20482 6.16694C6.19038 5.85982 5.15368 6.25784 4.16536 7.04299C2.91631 8.03526 2.04978 8.96268 1.6811 9.84368C1.48885 10.3031 1.41677 10.7865 1.53648 11.2643C1.65625 11.7423 1.94595 12.1266 2.31696 12.4274C3.02655 13.0028 4.14155 13.3613 5.47332 13.5986C6.53851 13.7883 7.81408 13.9118 9.27143 13.9799C9.37571 14.6714 9.47027 15.4119 9.55572 16.1989C8.71136 17.1693 8.22974 18.2418 8.25272 19.4255C8.31567 22.6677 7.90922 28.4664 7.40461 35.6654C7.30254 37.1216 7.19645 38.6351 7.08942 40.1964C6.45531 49.4458 5.79324 60.315 5.76359 70.6844C5.73398 81.0398 6.334 90.9586 8.24954 98.2845C9.20663 101.945 10.5084 105.024 12.2775 107.189C13.9094 109.186 15.9502 110.413 18.4426 110.573C19.0914 123.267 30.2725 129.825 41.0941 129.879C46.6261 129.906 52.1662 128.25 56.3039 124.785C60.3187 121.424 62.964 116.399 63.0178 109.709C69.5764 109.312 78.0438 108.853 87.1964 108.43C91.1273 108.705 95.1341 109.092 99.1959 109.488L99.4941 109.517C112.991 110.833 127.059 112.205 140.663 109.613C144.217 109.639 146.961 109.076 149.139 108.585C149.318 108.545 149.493 108.505 149.663 108.466C150.54 108.267 151.298 108.094 151.99 107.987C152.549 107.901 153.034 107.863 153.469 107.884C154.053 120.573 164.402 128.21 174.545 128.962C179.716 129.345 184.902 127.95 188.766 124.47C190.943 122.51 192.672 119.912 193.744 116.654C194.937 114.444 195.786 111.883 196.193 108.968C201.277 109.525 206.831 107.268 209.887 101.232C212.581 95.9102 213.279 87.7554 210.161 76.1711C209.426 71.9711 208.28 67.2139 206.647 61.8353L206.617 61.7356L206.56 61.6479C205.093 59.3639 203.037 58.1241 200.68 57.3575C195.98 54.7559 190.585 53.3288 184.98 52.7223C177.854 47.3983 170.331 36.7027 164.667 10.9859C164.18 8.77425 162.902 7.38326 161.049 6.56435C159.256 5.77166 156.938 5.51923 154.325 5.46012C152.593 5.42093 150.669 5.46732 148.624 5.51664C147.581 5.54178 146.507 5.56769 145.41 5.5834C144.355 5.59851 143.274 5.60442 142.171 5.59185C140.55 5.36452 138.857 5.15323 137.1 4.95779ZM138.134 6.95481C139.47 7.03432 140.78 7.07484 142.057 7.09061C147.185 7.81325 151.534 8.69231 154.848 9.7249C157.036 10.4065 158.731 11.1424 159.894 11.9178C161.073 12.7034 161.583 13.4443 161.668 14.1006C163.529 28.3973 166.689 37.8449 170.557 44.1549C172.836 47.8715 175.355 50.4904 177.981 52.3659C176.609 52.3682 175.236 52.4097 173.87 52.4854C164.101 53.0266 154.535 55.3219 147.52 57.6818C147.476 56.2844 147.36 54.7937 147.185 53.2345C146.713 49.0274 145.803 44.2315 144.671 39.2549C144.495 37.8223 144.294 36.3652 144.073 34.8944C142.622 25.2421 140.276 14.9454 138.134 6.95481ZM108.234 4.72065C91.3951 4.36059 72.9563 4.904 56.5988 6.32983C43.3261 7.48677 31.4607 9.2217 22.9462 11.5136C22.0117 11.7651 21.12 12.0227 20.273 12.2863C27.4027 11.8838 36.2257 11.0518 45.9294 10.0715C48.697 9.79193 51.5351 9.50044 54.4239 9.20373L54.4239 9.20373C66.9547 7.91671 80.4413 6.53151 93.2883 5.59385C98.3993 5.22082 103.415 4.91811 108.234 4.72065ZM12.2321 14.0453C11.7374 14.0445 11.2583 14.0395 10.7954 14.0301C10.8383 14.326 10.8793 14.6288 10.9184 14.9381C11.3214 14.6285 11.7614 14.331 12.2321 14.0453ZM11.1192 16.7321C11.6094 16.2659 12.2398 15.7943 13.024 15.3193C13.7735 14.8654 14.6403 14.4232 15.6174 13.9933C23.4656 13.7601 34.1491 12.7692 46.0801 11.5639C48.8532 11.2838 51.695 10.9919 54.5862 10.695L54.5863 10.695C67.116 9.40807 80.5748 8.02575 93.3975 7.08988C108.945 5.95515 123.502 5.48146 134.297 6.61852C134.924 8.88781 135.653 11.4351 136.436 14.1684L136.437 14.1747C138.47 21.2754 140.862 29.6314 142.755 37.633C142.903 38.2625 143.049 38.8895 143.191 39.5132C143.618 43.0061 143.895 46.3357 143.966 49.348C144.065 53.62 143.747 57.1861 142.897 59.6665C142.633 60.4342 142.327 61.0757 141.98 61.5962C140.818 59.4361 139.42 57.9356 137.981 56.973C136.483 55.9707 134.945 55.5586 133.619 55.6161C132.313 55.6727 131.128 56.1983 130.514 57.1708C129.868 58.1944 129.997 59.4742 130.86 60.6799C131.708 61.8626 133.289 63.0413 135.737 64.098C137.832 65.0024 139.661 65.1015 141.173 64.3316C141.289 64.2727 141.402 64.2092 141.512 64.1413C142.273 66.0483 142.876 68.4186 143.204 71.3374C144.043 78.8035 143.071 89.785 138.412 105.558C124.455 105.447 104.607 106.124 87.2213 106.927C78.7939 106.341 70.6148 106.271 62.9615 107.766C62.0766 94.3957 51.0643 87.4403 40.3062 87.3867C34.7593 87.3591 29.214 89.1562 25.0824 92.8934C21.351 96.2686 18.819 101.185 18.4564 107.642C17.7262 106.937 17.0559 105.961 16.4409 104.709C14.9924 101.761 13.9635 97.4788 13.2477 92.2723C11.8183 81.8746 11.6705 68.065 11.7118 54.5434C11.719 52.185 11.7319 49.835 11.7447 47.5139L11.7447 47.5134L11.7447 47.5134C11.8052 36.56 11.862 26.2498 11.2927 18.735C11.2405 18.0461 11.1829 17.3777 11.1192 16.7321ZM9.79828 18.8657C9.76403 19.0441 9.74904 19.221 9.75244 19.3964C9.81683 22.7125 9.40378 28.6022 8.89923 35.7965C8.79745 37.2477 8.69196 38.752 8.58591 40.299C7.95203 49.5451 7.29308 60.3722 7.26358 70.6887C7.23404 81.0194 7.83675 90.7763 9.70075 97.905C10.6334 101.472 11.8656 104.314 13.439 106.24C14.645 107.716 16.0419 108.645 17.6805 108.966C16.6716 108.073 15.8168 106.841 15.0946 105.371C13.5381 102.202 12.4837 97.7281 11.7617 92.4766C10.3157 81.9584 10.1706 68.0452 10.2118 54.5388C10.219 52.1664 10.232 49.8068 10.2448 47.4799L10.2448 47.4794C10.305 36.5347 10.3612 26.312 9.79828 18.8657ZM19.9304 110.272C20.4102 122.045 30.6983 128.327 41.1016 128.379C46.3488 128.405 51.5243 126.831 55.341 123.635C59.0243 120.551 61.4913 115.918 61.5184 109.606C61.4917 109.612 61.4649 109.618 61.4382 109.625C61.3778 115.211 58.9615 119.551 55.3349 122.541C51.5962 125.624 46.5961 127.256 41.5986 127.411C36.6013 127.566 31.5368 126.246 27.6742 123.334C23.9419 120.52 21.3706 116.247 21.0709 110.508C20.6754 110.467 20.2954 110.388 19.9304 110.272ZM61.4778 108.077C60.7533 95.5284 50.5233 88.9377 40.2987 88.8867C35.0664 88.8606 29.9012 90.5572 26.0886 94.0059C22.5 97.2519 20.0587 102.095 19.9179 108.659C20.2802 108.823 20.6552 108.934 21.0432 108.992C21.1252 102.881 23.5072 98.3185 27.1217 95.282C30.8744 92.1292 35.8962 90.6689 40.9042 90.7439C50.614 90.8893 60.662 96.8675 61.3966 108.095C61.4236 108.089 61.4507 108.083 61.4778 108.077ZM98.7079 107.934C98.919 107.954 99.1302 107.975 99.3415 107.995L99.5363 108.014L99.5364 108.014C112.997 109.327 126.77 110.669 140.062 108.2C140.213 107.836 140.358 107.463 140.496 107.081C139.994 107.074 139.483 107.068 138.963 107.063C127.964 106.957 113.124 107.36 98.7079 107.934ZM142.077 107.109C141.961 107.446 141.841 107.778 141.716 108.103C144.171 108.037 146.197 107.685 147.928 107.316C146.202 107.221 144.239 107.153 142.077 107.109ZM153.444 106.319C150.987 105.942 147.208 105.722 142.552 105.618C144.365 99.4655 144.949 91.7105 145.26 84.569C145.342 82.6943 145.405 80.8672 145.465 79.1157L145.465 79.115L145.465 79.1143C145.544 76.8125 145.618 74.6414 145.725 72.6649C145.903 69.3946 146.167 66.7965 146.652 65.1605C153.621 62.4096 164.241 58.9961 175.111 58.0663C186.113 57.1253 197.226 58.7382 205.131 65.9751C206.654 69.7793 207.826 73.2789 208.694 76.4905C210.547 87.1192 209.681 93.8776 207.631 98.0021C206.221 100.839 204.248 102.441 202.171 103.237C200.261 103.968 198.223 104.033 196.398 103.69C195.619 96.831 192.62 91.8152 188.5 88.5974C184.282 85.3032 178.94 83.9324 173.722 84.339C166.661 84.8893 159.772 88.7075 156.134 95.4836C154.479 98.4271 153.492 102.045 153.444 106.319ZM170.83 126.836C172.092 127.159 173.374 127.371 174.656 127.466C179.461 127.822 184.185 126.532 187.683 123.426C184.072 125.921 179.728 127.151 175.382 127.208C173.86 127.228 172.332 127.103 170.83 126.836ZM192.361 116.057C191.439 117.736 190.308 119.183 189.024 120.408C185.358 123.906 180.392 125.642 175.362 125.708C165.274 125.84 155.216 119.295 154.982 107.204C154.897 102.86 155.851 99.1442 157.517 96.0868C158.322 94.6849 159.287 93.4608 160.373 92.4122C163.735 89.167 168.307 87.5488 173.002 87.5924C182.367 87.6792 192.157 94.3781 193.451 107.865C193.509 111.002 193.111 113.723 192.361 116.057ZM194.882 107.135C193.285 93.2354 182.972 86.1847 173.016 86.0924C172.544 86.0881 172.073 86.0993 171.604 86.1262C172.343 85.9902 173.09 85.8928 173.839 85.8345C178.726 85.4536 183.687 86.7415 187.577 89.7796C191.45 92.8045 194.311 97.6032 194.959 104.353C194.977 105.315 194.951 106.242 194.882 107.135ZM196.36 107.478C200.875 107.974 205.803 105.978 208.548 100.554C209.335 99.0009 209.947 97.1559 210.318 94.9952C209.961 96.377 209.507 97.5968 208.974 98.6696C207.403 101.832 205.148 103.703 202.708 104.637C200.618 105.438 198.428 105.539 196.463 105.224C196.456 105.996 196.421 106.747 196.36 107.478ZM205.812 64.2971C205.638 63.6956 205.458 63.0855 205.271 62.4666C203.684 61.018 201.943 59.7833 200.079 58.7402C199.023 58.4077 197.867 58.1637 196.619 57.9555C195.93 57.8405 195.212 57.7367 194.471 57.6338C194.858 57.7795 195.242 57.9221 195.623 58.0635C196.364 58.3387 197.094 58.6095 197.809 58.8904C200.892 60.1004 203.7 61.4966 205.812 64.2971ZM182.309 52.4949C181.827 52.4646 181.344 52.4398 180.861 52.4204C177.681 50.6364 174.59 47.863 171.836 43.3709C168.12 37.3091 165.002 28.0919 163.156 13.9069C162.987 12.6142 162.045 11.5487 160.726 10.6696C159.392 9.78039 157.543 8.99338 155.295 8.2928C153.784 7.82226 152.075 7.38505 150.19 6.98062C151.648 6.94908 153.016 6.93088 154.291 6.95974C156.876 7.01821 158.938 7.27131 160.443 7.9363C161.888 8.57508 162.824 9.59395 163.202 11.3086C168.459 35.1745 175.367 46.4688 182.309 52.4949ZM188.551 56.7066C188.742 56.8053 188.933 56.9015 189.123 56.9955C184.517 56.2207 179.71 56.1675 174.984 56.5718C164.448 57.4729 154.186 60.6563 147.151 63.3565C147.397 62.1505 147.518 60.7727 147.536 59.2602C154.48 56.883 164.121 54.5277 173.953 53.9831C176.123 53.8628 178.297 53.8311 180.449 53.9058C181.506 54.4773 182.573 54.9502 183.642 55.3462C185.283 55.9537 186.933 56.3802 188.551 56.7066ZM146.032 58.1965C146.004 56.7346 145.888 55.1286 145.695 53.4017C145.63 52.8294 145.558 52.2456 145.478 51.6512C145.439 54.2992 145.213 56.6829 144.741 58.6675C145.159 58.5111 145.589 58.3539 146.032 58.1965ZM146.025 59.793C145.97 61.6082 145.749 63.1464 145.335 64.3509C144.911 65.5879 144.641 67.3258 144.452 69.3882C144.055 66.9249 143.451 64.8473 142.709 63.1123C143.328 62.4008 143.816 61.5042 144.198 60.4824C144.778 60.2548 145.387 60.0244 146.025 59.793ZM143.297 92.0756C142.884 96.9343 142.207 101.648 140.995 105.589C140.658 105.583 140.316 105.578 139.97 105.574C141.419 100.629 142.509 96.1422 143.297 92.0756ZM189.055 55.2792C190.617 55.5855 192.158 55.7994 193.662 56.0061C191.799 55.4218 189.866 54.9703 187.886 54.6359C188.277 54.8623 188.667 55.0762 189.055 55.2792ZM140.11 21.6129C139.342 18.8699 138.582 16.2149 137.868 13.7206L137.867 13.7173C137.152 11.2214 136.484 8.88635 135.9 6.78524C136.117 6.80548 136.334 6.82452 136.55 6.84244C137.73 11.2077 138.979 16.2999 140.11 21.6129ZM137.147 58.2197C138.441 59.0854 139.78 60.53 140.891 62.7538C140.762 62.8452 140.629 62.9255 140.493 62.9949C139.517 63.4914 138.185 63.5211 136.332 62.7209C134.008 61.7177 132.704 60.6776 132.08 59.8064C131.472 58.9581 131.544 58.3488 131.782 57.9719C132.053 57.5439 132.694 57.1576 133.684 57.1147C134.655 57.0726 135.882 57.3732 137.147 58.2197ZM5.09841 8.21748C5.92146 7.56362 6.44369 7.50374 6.77019 7.60259C7.13018 7.71158 7.56872 8.10184 8.00939 9.04767C8.40309 9.8927 8.73478 11.0423 9.01189 12.465C7.73823 12.3964 6.64232 12.2832 5.73638 12.1218C4.45279 11.8932 3.66009 11.5853 3.26171 11.2623C3.07872 11.1139 3.01436 10.9909 2.9915 10.8997C2.96859 10.8083 2.96532 10.6605 3.06482 10.4227C3.27964 9.90942 3.88838 9.17875 5.09841 8.21748ZM22.5454 109.773C22.4272 103.68 24.6814 99.2911 28.0865 96.4304C31.5115 93.5531 36.1608 92.173 40.8818 92.2437C50.3673 92.3858 59.7277 98.3194 59.9359 109.048C60.0406 114.444 57.8036 118.562 54.3806 121.384C50.9394 124.221 46.275 125.766 41.5521 125.912C36.8291 126.058 32.1175 124.805 28.5771 122.136C25.0579 119.483 22.6547 115.404 22.5454 109.773Z" fill="#151515"/>
<path d="M49.5186 112.106C48.9789 114.373 47.4808 116.553 45.5306 118.023C43.5807 119.494 41.2619 120.198 39.0783 119.678C36.8819 119.155 34.9532 117.426 33.7046 115.178C32.4568 112.931 31.9551 110.283 32.4869 108.05C33.0082 105.861 34.7375 103.939 36.9893 102.696C39.2394 101.453 41.8941 100.955 44.1341 101.488C48.512 102.531 50.6269 107.453 49.5186 112.106Z" stroke="#151515" stroke-width="1.5"/>
<path d="M182.511 102.613C183.811 104.534 184.348 107.082 184.057 109.49C183.766 111.898 182.662 114.074 180.791 115.339C178.91 116.612 176.275 116.938 173.728 116.415C171.181 115.892 168.86 114.548 167.584 112.662C166.336 110.819 166.177 108.202 166.888 105.629C167.597 103.063 169.132 100.7 171.046 99.4053C174.773 96.8832 179.83 98.6511 182.511 102.613Z" stroke="#151515" stroke-width="1.5"/>
<path d="M46.274 109.115C46.3069 110.811 45.6489 112.63 44.5389 114.03C43.4291 115.431 41.9335 116.336 40.3302 116.367C38.7136 116.398 37.0444 115.541 35.7461 114.173C34.4491 112.805 33.6163 111.023 33.584 109.362C33.5527 107.745 34.4094 106.076 35.7781 104.778C37.1454 103.481 38.9276 102.648 40.5891 102.616C43.8067 102.553 46.2057 105.599 46.274 109.115Z" stroke="#151515" stroke-width="1.5"/>
<path d="M178.865 102.364C180.109 103.461 181.064 105.477 181.392 107.605C181.722 109.747 181.383 111.761 180.347 112.936C179.278 114.148 177.518 114.8 175.632 114.832C173.748 114.863 171.871 114.273 170.625 113.174C169.412 112.104 168.761 110.345 168.729 108.459C168.697 106.574 169.288 104.698 170.387 103.451C172.687 100.843 176.427 100.213 178.865 102.364Z" stroke="#151515" stroke-width="1.5"/>
<circle cx="43.4383" cy="34.1061" r="15.4492" transform="rotate(0.228411 43.4383 34.1061)" fill="#151515"/>
<path d="M10.8373 31.3757C23.3923 39.7481 28.2301 30.1609 32.2417 31.461C39.4761 33.8057 28.3392 40.1186 40.8267 42.3648C53.3143 44.611 51.579 32.1575 51.2873 30.6921C50.9956 29.2266 50.859 26.1511 45.0595 25.5422C39.26 24.9333 35.837 25.2125 35.9642 30.631C36.0914 36.0494 32.0388 45.112 50.6514 40.9397C53.9295 39.6349 55.3191 26.9009 47.4439 24.5267C40.1585 23.4726 33.2947 28.5366 33.7171 34.5419C34.1394 40.5473 17.7066 30.6498 10.8224 35.1204" stroke="#151515"/>
<mask id="mask0_111_1666" style="mask-type:alpha" maskUnits="userSpaceOnUse" x="27" y="18" width="32" height="32">
<circle cx="43.4383" cy="34.1061" r="15.4492" transform="rotate(0.228411 43.4383 34.1061)" fill="#151515"/>
</mask>
<g mask="url(#mask0_111_1666)">
<path d="M10.8334 31.3759C23.3884 39.7483 28.2262 30.161 32.2378 31.4612C39.4721 33.8059 28.3353 40.1187 40.8228 42.365C53.3103 44.6112 51.5751 32.1577 51.2834 30.6923C50.9917 29.2268 50.8551 26.1513 45.0556 25.5424C39.2561 24.9335 35.8331 25.2127 35.9603 30.6312C36.0875 36.0496 32.0349 45.1122 50.6475 40.9399C53.9256 39.6351 55.3152 26.9011 47.44 24.5269C40.1546 23.4728 33.2908 28.5368 33.7132 34.5421C34.1355 40.5474 17.7027 30.65 10.8185 35.1206" stroke="white"/>
</g>
</svg>
