<svg width="1920" height="155" viewBox="0 0 1920 155" fill="none" xmlns="http://www.w3.org/2000/svg">
<path d="M1439.46 134.433C1439.46 134.433 1439.41 131.491 1439.52 129.684M1439.46 134.433C1439.46 134.433 1450.46 154.433 1418.46 150.433C1386.46 146.433 1413.8 137.591 1389.46 129.684C1375.96 125.299 1326.96 141.248 1043.96 138.522C1008.96 138.022 1032.46 124.221 1018.31 115.933C1009.41 110.72 1009.61 116.483 996.961 114.933C984.311 113.383 985.961 135.433 985.961 145.433C985.961 155.433 992.461 149.433 1009.96 151.933C1027.46 154.433 1018.24 141.998 1020.96 132.933C1026.96 112.933 981.311 112.933 983.961 126.433C986.61 139.933 666.285 135.127 645.962 125.933C624.962 116.433 637.962 110.433 614.462 110.433C590.962 110.433 596.418 115.933 597.418 134.433C598.418 152.933 601.962 144.433 621.462 149.933C640.962 155.433 629.962 127.712 631.962 117.322C633.962 106.933 625.462 114.433 615.918 112.933C606.375 111.433 593.094 101.28 593.094 127.019C593.094 133.933 171.572 146.482 -22.4277 124.481C-22.4277 124.481 -38.089 130.895 -21.0597 130.895C116.94 130.895 551.418 126.895 574.918 126.895C598.418 126.895 595.462 123.325 595.462 141.933C595.462 149.433 628.962 159.933 630.962 135.933C631.197 133.117 630.962 128.871 644.462 128.871C718.462 132.301 972.043 123.989 981.311 131.933C999.811 150.433 981.769 151.933 1005.77 153.933C1029.96 153.933 1015.64 146.099 1034.46 138.522C1057.16 129.387 1395.46 146.956 1393.96 131.418C1392.46 115.879 1404.2 111.962 1428.7 115.462C1445.2 115.462 1448.96 146.962 1437.96 151.462C1385.96 151.962 1397.46 148.184 1396.96 129.684C1396.46 111.184 1405.46 114.433 1424.96 116.433C1439.49 117.923 1439.86 124.406 1439.52 129.684M1439.46 134.433C1585.9 138.056 1946.46 123.433 1931.96 129.684C1765.56 145.484 1534.34 136.267 1439.52 129.684" stroke="#151515" stroke-width="1.5"/>
<path d="M615.896 112.933V3.13034C625.96 4.53807 648.101 6.73924 656.152 4.28212C666.216 1.21072 644.927 15.4159 639.508 18.1034C634.089 20.7909 681.312 28.8533 667.377 29.6212C658.474 30.1117 634.863 40.755 617.445 31.1569C623.638 35.38 650.733 32.6926 663.506 29.6212C676.28 26.5498 633.702 20.407 641.443 19.2552C649.185 18.1034 660.023 6.96959 661.958 2.36249C663.893 -2.24461 662.732 6.20174 615.122 1.21072C612.413 33.4604 623.638 59.1834 613.961 112.933H615.896Z" stroke="#151515" stroke-width="1.5"/>
<path d="M1420.94 117V7.19748C1431 8.60521 1453.14 10.8064 1461.19 8.34926C1471.25 5.27786 1449.97 19.4831 1444.55 22.1706C1439.13 24.858 1486.35 32.9205 1472.42 33.6883C1463.51 34.1789 1439.9 44.8221 1422.48 35.224C1428.68 39.4472 1455.77 36.7597 1468.55 33.6883C1481.32 30.6169 1438.74 24.4741 1446.48 23.3223C1454.22 22.1706 1465.06 11.0367 1467 6.42963C1468.93 1.82253 1467.77 10.2689 1420.16 5.27786C1417.45 37.5276 1428.68 63.2505 1419 117H1420.94Z" stroke="#151515" stroke-width="1.5"/>
<path d="M1001.82 116.933V8.87554C1011.48 10.2609 1035.31 6.44197 1043.38 6.98641C1054.81 7.75718 1032.2 22.5667 1027 25.2114C1021.8 27.8562 1040.33 32.1695 1046.81 32.5337C1053.66 32.9191 1027 41.3976 1001.61 36.773C1009.48 37.5437 1034.55 37.4832 1046.81 34.4607C1059.07 31.4381 1014.62 26.3449 1022.05 25.2114C1029.48 24.078 1048.23 9.09517 1043.38 8.87554C1031.57 8.3404 1046.77 11.8981 1001.08 6.98643C998.475 38.7236 1009.25 64.0377 999.961 116.933H1001.82Z" stroke="#151515" stroke-width="1.5"/>
</svg>
