<svg width="76" height="473" viewBox="0 0 76 473" fill="none" xmlns="http://www.w3.org/2000/svg">
<circle cx="38" cy="249" r="38" fill="#151515"/>
<path d="M28.4976 28C34.7286 11.3416 47.432 8.20873 57.7046 18.8079C67.3234 28.7325 36.4806 31.908 37.2051 54.3158C37.2051 57.0999 34.9922 60.3627 36.3531 61.3911M28.4976 28C26.7295 32.727 18.9976 28 23.7647 13.2955C30.1404 -11.1763 65.1136 5.99921 67.0145 20.7278C69.0144 36.2237 48.0059 37.7452 48.0059 50.5049C48.0059 61.4093 39.8204 64.0114 36.3531 61.3911M28.4976 28C29.9635 22.0796 34.8753 7.7238 43.0023 8.78903C53.1612 10.1206 60.941 15.3173 56.5873 22.7148C52.2335 30.1122 35.2058 30.4082 34.383 50.8251C34.2046 55.2513 35.3141 59.7505 36.3531 61.3911M28.4976 28C26.3884 36.5185 12.4975 28 23.7647 10.8019C31.3556 -0.784685 64.3945 -2.51473 67.7324 18.3461C71.0703 39.2069 41.6835 36.997 46.0804 49.9864C50.199 62.1534 40.1066 67.3182 36.3531 61.3911M36.3531 61.3911C40.7438 64.3846 48.0741 70.7391 40.9629 72.5144C32.0423 74.7416 38.3507 65.8567 43.5752 73.846C48.7997 81.8352 47.7257 92.9167 40.9048 89.8098C34.0838 86.7028 41.948 80.2715 46.7098 85.337M46.7098 85.337C51.4717 90.4025 42.2694 96.7696 37.3025 90.1855M46.7098 85.337C45.1773 73.9449 31.5126 82.5106 37.3025 90.1855M37.3025 90.1855C31.2009 119.29 26.8976 180.9 58.4976 194.5" stroke="#151515" stroke-width="1.5"/>
<path d="M28.4989 216.999C34.7299 200.341 43.2259 195.893 53.4986 206.492C63.1174 216.417 32.2745 219.592 32.999 242C32.999 244.784 34.9936 249.362 36.3544 250.39M28.4989 216.999C26.7308 221.726 16.4989 214.846 21.266 200.142C27.6417 175.67 60.0981 192.618 61.9989 207.346C63.9988 222.842 48.0073 226.744 48.0073 239.504C48.0073 250.408 39.8217 253.01 36.3544 250.39M28.4989 216.999C29.9649 211.079 35.994 196.009 44.1211 197.075C54.2799 198.406 62.3051 208.279 57.9513 215.676C53.5975 223.074 35.4525 224.083 34.6297 244.5C34.4513 248.926 35.3155 248.749 36.3544 250.39M28.4989 216.999C26.3897 225.517 13.2641 217.461 24.5313 200.263C32.1222 188.676 65.1611 186.946 68.499 207.807C71.8369 228.668 41.6849 225.996 46.0818 238.985C50.2003 251.152 40.108 256.317 36.3544 250.39M36.3544 250.39C40.7452 253.384 48.3285 263 40.999 263C33.6696 263 49.8199 282.119 42.999 279.012C36.1781 275.905 42.6445 269.935 47.4063 275M47.4063 275C52.1682 280.066 42.4659 286.23 37.499 279.646M47.4063 275C45.8738 263.608 31.7092 271.971 37.499 279.646M37.499 279.646C48.6657 295.764 61.899 339.8 25.499 387" stroke="#151515" stroke-width="1.5"/>
<mask id="mask0_111_1623" style="mask-type:alpha" maskUnits="userSpaceOnUse" x="0" y="211" width="76" height="76">
<circle cx="38" cy="249" r="38" fill="#151515"/>
</mask>
<g mask="url(#mask0_111_1623)">
<path d="M28.4989 216.999C34.7299 200.341 43.2259 195.893 53.4986 206.492C63.1174 216.417 32.2745 219.592 32.999 242C32.999 244.784 34.9936 249.362 36.3544 250.39M28.4989 216.999C26.7308 221.726 16.4989 214.846 21.266 200.142C27.6417 175.67 60.0981 192.618 61.9989 207.346C63.9988 222.842 48.0073 226.744 48.0073 239.504C48.0073 250.408 39.8217 253.01 36.3544 250.39M28.4989 216.999C29.9649 211.079 35.994 196.009 44.1211 197.075C54.2799 198.406 62.3051 208.279 57.9513 215.676C53.5975 223.074 35.4525 224.083 34.6297 244.5C34.4513 248.926 35.3155 248.749 36.3544 250.39M28.4989 216.999C26.3897 225.517 13.2641 217.461 24.5313 200.263C32.1222 188.676 65.1611 186.946 68.499 207.807C71.8369 228.668 41.6849 225.996 46.0818 238.985C50.2003 251.152 40.108 256.317 36.3544 250.39M36.3544 250.39C40.7452 253.384 48.3285 263 40.999 263C33.6696 263 49.8199 282.119 42.999 279.012C36.1781 275.905 42.6445 269.935 47.4063 275M47.4063 275C52.1682 280.066 42.4659 286.23 37.499 279.646M47.4063 275C45.8738 263.608 31.7092 271.971 37.499 279.646M37.499 279.646C48.6657 295.764 61.899 339.8 25.499 387" stroke="white" stroke-width="1.5"/>
</g>
<path d="M28.4976 406C34.7286 389.342 47.432 387.279 57.7046 397.878C67.3234 407.802 36.4806 410.978 37.2051 433.386C37.2051 436.17 34.555 437.577 35.9159 438.606M28.4976 406C26.7295 410.727 18.9976 406 23.7647 391.296C30.1404 366.824 65.1136 383.999 67.0145 398.728C69.0144 414.224 47.5687 414.96 47.5687 427.72C47.5687 438.624 39.3831 441.226 35.9159 438.606M28.4976 406C29.9635 400.08 36.0107 385.724 44.1378 386.789C54.2966 388.121 62.0584 394.492 57.7046 401.89C53.3509 409.287 35.1878 409.583 34.3649 430C34.1866 434.426 34.8769 436.965 35.9159 438.606M28.4976 406C26.3884 414.519 12.4975 406 23.7647 388.802C31.3556 377.215 64.3945 375.485 67.7324 396.346C71.0703 417.207 41.6835 414.997 46.0804 427.986C50.199 440.153 39.6694 444.533 35.9159 438.606M35.9159 438.606C40.3066 441.599 35.1039 455.536 44.9564 452.668C60.9976 448 39.4976 438.606 47.5687 454C55.6399 469.394 47.7257 470.917 40.9048 467.81C34.0838 464.703 42.6455 459.086 47.4073 464.151M47.4073 464.151C52.1692 469.217 42.967 475.584 38 469C32.2102 461.325 45.8748 452.759 47.4073 464.151Z" stroke="#151515" stroke-width="1.5"/>
</svg>
