<svg width="57" height="57" viewBox="0 0 57 57" fill="none" xmlns="http://www.w3.org/2000/svg">
<mask id="mask0_115_512" style="mask-type:alpha" maskUnits="userSpaceOnUse" x="0" y="0" width="57" height="57">
<circle cx="28.3486" cy="28.8546" r="28.1455" fill="#151515"/>
</mask>
<g mask="url(#mask0_115_512)">
<path d="M44.382 29.2455C44.382 29.2455 44.3391 26.9457 44.4302 25.5325M44.382 29.2455C44.382 29.2455 52.9819 44.8819 27.9637 41.7546C2.94556 38.6273 24.3231 31.7148 5.28906 25.5325C-5.26548 22.1043 -43.5715 34.5739 -264.826 32.4425C-292.19 32.0516 -273.818 21.262 -284.881 14.7819C-291.84 10.706 -291.682 15.2118 -301.573 14.0001C-311.463 12.7884 -310.173 30.0274 -310.173 37.8456C-310.173 45.6638 -305.091 40.9727 -291.409 42.9274C-277.727 44.8821 -284.935 35.1599 -282.809 28.0728C-278.118 12.4365 -313.808 12.4364 -311.736 22.991C-309.665 33.5456 -560.101 29.7878 -575.99 22.6001C-592.408 15.1728 -582.244 10.4819 -600.617 10.4819C-618.99 10.4819 -614.724 14.782 -613.942 29.2456C-613.161 43.7093 -610.39 37.0637 -595.144 41.3636C-579.899 45.6635 -588.499 23.991 -586.935 15.8683C-585.372 7.74554 -592.017 13.6092 -599.479 12.4364C-606.94 11.2637 -617.323 3.32616 -617.323 23.4494C-617.323 28.8546 -946.876 38.6654 -1098.55 21.465C-1098.55 21.465 -1110.79 26.4794 -1097.48 26.4795C-989.589 26.4798 -649.906 23.3521 -631.533 23.3521C-613.161 23.3521 -615.472 20.5613 -615.472 35.1092C-615.472 40.9727 -589.281 49.1821 -587.717 30.4183C-587.534 28.217 -587.717 24.8975 -577.162 24.8975C-519.308 27.5792 -321.054 21.0802 -313.808 27.291C-299.344 41.7546 -313.45 42.9273 -294.686 44.4909C-275.773 44.4909 -286.968 38.3661 -272.253 32.4425C-254.511 25.3005 9.98193 39.0362 8.8092 26.8881C7.63648 14.7401 16.8137 11.6775 35.9683 14.4138C48.8681 14.4138 51.8092 39.0411 43.2092 42.5592C2.55468 42.9501 11.5456 39.9962 11.1547 25.5325C10.7638 11.0688 17.8001 13.6092 33.0455 15.1729C44.4016 16.3377 44.696 21.4064 44.4302 25.5325M44.382 29.2455C158.873 32.0783 440.764 20.6455 429.427 25.5325C299.333 37.8857 118.557 30.6797 44.4302 25.5325" stroke="white" stroke-width="1.25"/>
<path d="M62.3623 -71.0555C62.3623 -71.0555 64.8752 -71.7484 42.4282 -71.0555M62.3623 -71.0555C62.3623 -71.0555 59.8203 -71.0493 56.924 -71.0555M62.3623 -71.0555C62.3623 -71.0555 63.2781 -68.3426 63.9282 -66.5273M65.6437 -49.4342C65.6437 -49.4342 49.5352 -44.1901 29.6443 -47.8006C30.3911 -47.7277 35.6101 -47.7843 36.9555 -47.7856M65.6437 -49.4342C65.6437 -49.4342 64.6162 -49.5161 58.7138 -49.1369M65.6437 -49.4342L65.8827 -55.1909M65.0981 -59.8818C65.0981 -59.8818 64.741 -64.2579 63.9282 -66.5273M65.0981 -59.8818C54.2265 -59.6812 31.9882 -59.9723 29.6415 -59.4909M65.0981 -59.8818C60.8567 -60.6039 40.1251 -59.9924 29.6415 -59.4909M65.0981 -59.8818C65.2012 -58.8457 65.8681 -56.3235 65.8827 -55.1909M36.1737 -71.507C36.1737 -71.507 30.2619 -71.1009 29.2284 -71.0555C29.1298 -69.8552 29.1467 -66.5343 29.0942 -65.3545M36.1737 -71.507L36.9555 -47.7856M36.1737 -71.507C32.4564 -71.6472 30.3203 -71.7191 28.3555 -72L29.8104 14.7818H28.3555C33.6337 -15.181 30.791 -35.8049 29.5282 -53.2364M36.1737 -71.507C36.1737 -71.507 41.1108 -71.0148 42.4282 -71.0555M36.1737 -71.507C39.191 -71.3931 48.6827 -71.0555 48.6827 -71.0555M36.9555 -47.7856C36.9555 -47.7856 42.0432 -47.6241 43.3755 -47.6881M42.4282 -71.0555C44.7736 -62.6182 43.3755 -47.6881 43.3755 -47.6881M43.3755 -47.6881L50.2464 -48.1545M50.2464 -48.1545L58.7138 -49.1369M50.2464 -48.1545C50.2464 -48.1545 51.1003 -55.05 50.6373 -59.4909C50.1779 -63.8969 48.6827 -71.0555 48.6827 -71.0555M48.6827 -71.0555H56.924M58.7138 -49.1369C58.7138 -49.1369 59.5491 -57.7909 56.924 -71.0555M58.7138 -49.1369C58.7138 -49.1369 58.3161 -65.8554 56.924 -71.0555M29.0942 -65.3545C36.2365 -64.853 53.4278 -64.9626 63.9282 -66.5273M29.0942 -65.3545C29.0312 -63.9396 29.6474 -60.8859 29.6415 -59.4909M29.6415 -59.4909C29.6355 -58.0811 29.5998 -60.891 29.6415 -59.4909ZM29.6415 -59.4909C29.6743 -58.3872 29.5282 -53.2364 29.5282 -53.2364M65.8827 -55.1909C57.348 -54.0877 29.5282 -53.2364 29.5282 -53.2364M65.8827 -55.1909C63.8908 -53.506 40.8521 -53.1361 29.5282 -53.2364" stroke="white" stroke-width="1.25"/>
</g>
</svg>
