<svg width="50" height="113" viewBox="0 0 50 113" fill="none" xmlns="http://www.w3.org/2000/svg">
<path d="M44.4972 2.20809C44.4972 2.20809 47.7113 1.3218 19 2.2081M44.4972 2.20809C44.4972 2.20809 41.2457 2.216 37.5411 2.2081M44.4972 2.20809C44.4972 2.20809 45.6684 5.67811 46.5 8M48.6943 29.8632C48.6943 29.8632 28.0903 36.5709 2.6485 31.9528C3.6037 32.0459 10.2791 31.9735 12 31.9718M48.6943 29.8632C48.6943 29.8632 47.38 29.7585 39.8304 30.2435M48.6943 29.8632L49 22.5M47.9964 16.5C47.9964 16.5 47.5396 10.9027 46.5 8M47.9964 16.5C34.0909 16.7566 5.64651 16.3843 2.64487 17M47.9964 16.5C42.5713 15.5764 16.0542 16.3586 2.64487 17M47.9964 16.5C48.1282 17.8252 48.9813 21.0513 49 22.5M11 1.6306C11 1.6306 3.43845 2.15007 2.11658 2.2081C1.99037 3.74338 2.012 7.99097 1.94487 9.5M11 1.6306L12 31.9718M11 1.6306C6.24538 1.45121 3.51318 1.35928 1 1L2.86097 112H1C7.75121 73.6755 4.11521 47.296 2.5 25M11 1.6306C11 1.6306 17.315 2.26012 19 2.2081M11 1.6306C14.8594 1.77621 27 2.2081 27 2.2081M12 31.9718C12 31.9718 18.5075 32.1785 20.2116 32.0966M19 2.2081C22 13 20.2116 32.0966 20.2116 32.0966M20.2116 32.0966L29 31.5M29 31.5L39.8304 30.2435M29 31.5C29 31.5 30.0923 22.6802 29.5 17C28.9124 11.3645 27 2.2081 27 2.2081M27 2.2081H37.5411M39.8304 30.2435C39.8304 30.2435 40.8988 19.1745 37.5411 2.2081M39.8304 30.2435C39.8304 30.2435 39.3217 8.85934 37.5411 2.2081M1.94487 9.5C11.0804 10.1415 33.0693 10.0014 46.5 8M1.94487 9.5C1.86436 11.3098 2.65246 15.2157 2.64487 17M2.64487 17C2.63721 18.8033 2.59153 15.2091 2.64487 17ZM2.64487 17C2.68692 18.4117 2.5 25 2.5 25M49 22.5C38.0835 23.9111 2.5 25 2.5 25M49 22.5C46.4522 24.6551 16.984 25.1283 2.5 25" stroke="#151515" stroke-width="1.5"/>
</svg>
