<svg width="18" height="23" viewBox="0 0 18 23" fill="none" xmlns="http://www.w3.org/2000/svg">
<path d="M8.88668 21.4333C11.8635 19.7075 16.8692 13.7927 15.0373 6.88948C12.7475 -1.73955 -0.27257 0.481513 1.10134 10.5898C2.20047 17.0985 8.62563 20.6937 10.9155 21.4333C14.6556 18.4748 20.2581 10.7826 14.5792 3.68214C7.48069 -5.19343 -5.31041 8.12206 8.88668 21.4333Z" stroke="#151515" stroke-opacity="0.35"/>
<path d="M7.88548 10.5178C7.55473 10.1496 7.32655 9.64862 7.32655 9.1086C7.32655 8.43838 7.41363 8.03635 7.60083 7.79489C7.76305 7.58565 8.09086 7.38968 8.88741 7.38965L7.88548 10.5178ZM7.88548 10.5178C8.22623 10.8971 8.61627 11.074 8.88741 11.074M7.88548 10.5178L8.88741 11.074M8.88741 11.074C10.1388 11.074 10.9062 10.0294 10.9062 8.862M8.88741 11.074L10.9062 8.862M10.9062 8.862C10.9062 8.36043 10.6863 8.01582 10.3386 7.77779M10.9062 8.862L10.3386 7.77779M10.3386 7.77779C9.97189 7.52672 9.44892 7.38965 8.88743 7.38965L10.3386 7.77779Z" stroke="#151515" stroke-opacity="0.35"/>
<path d="M8.01768 11.1368C7.60821 10.697 7.32735 10.1008 7.32735 9.45896C7.32735 8.68308 7.43037 8.19711 7.67208 7.89627C7.89209 7.62245 8.3248 7.38968 9.30039 7.38965L8.01768 11.1368ZM8.01768 11.1368C8.43618 11.5864 8.93076 11.8136 9.30039 11.8136M8.01768 11.1368L9.30039 11.8136M9.30039 11.8136C10.8877 11.8136 11.823 10.538 11.823 9.17342M9.30039 11.8136L11.823 9.17342M11.823 9.17342C11.823 8.57242 11.548 8.15002 11.1052 7.85749M11.823 9.17342L11.1052 7.85749M11.1052 7.85749C10.6431 7.55223 9.99153 7.38965 9.30041 7.38965L11.1052 7.85749Z" stroke="#151515" stroke-opacity="0.35"/>
</svg>
