<svg width="1265" height="42" viewBox="0 0 1265 42" fill="none" xmlns="http://www.w3.org/2000/svg">
<path fill-rule="evenodd" clip-rule="evenodd" d="M0 17.3567C0.76848 17.3679 1.54474 17.3787 2.32859 17.3889C12.3183 18.2062 24.7034 18.9502 38.7247 19.6044C71.5835 21.1374 113.457 22.1785 154.609 22.5102C195.76 22.8419 236.202 22.4644 266.196 21.1594C281.189 20.5071 293.591 19.6223 302.17 18.4751C303.157 18.3431 304.096 18.2074 304.983 18.0678C306.002 18.1839 306.921 18.3062 307.737 18.435C308.914 18.6208 309.859 18.8174 310.571 19.0227C311.285 19.2284 311.675 19.4192 311.845 19.5544C313.607 21.3185 315.028 22.9212 316.181 24.3778C316.173 26.1409 316.197 27.8309 316.219 29.3688V29.3716C316.235 30.5083 316.25 31.5618 316.25 32.5001C316.25 35.0323 316.65 36.8046 317.759 37.9132C318.869 39.0237 320.507 39.281 322.425 39.3124C322.838 39.3192 323.27 39.3157 323.725 39.3054C324.14 39.5805 324.63 39.8169 325.21 40.0259C327.293 40.7766 330.77 41.2493 336.748 41.7474L336.779 41.75H336.81C342.877 41.75 346.626 41.2618 349.107 40.3627C351.656 39.4389 352.843 38.0893 353.807 36.5302C354.057 36.125 354.287 35.7198 354.518 35.3114L354.521 35.3054C355.172 34.155 355.837 32.9789 357.027 31.7056C358.616 30.0056 361.148 28.1497 365.78 26.2849C366.103 26.1549 366.502 26.0289 366.976 25.9072C369.25 26.148 371.901 26.295 374.989 26.3391L374.993 26.3392C451.447 27.0756 510.828 26.4493 557.048 25.2288C599.711 25.8605 641.459 26.282 672.668 25.6152C688.602 25.2747 701.811 24.6502 710.997 23.6218C715.584 23.1084 719.208 22.4902 721.677 21.7426C722.904 21.3707 723.904 20.9505 724.599 20.4583C724.957 20.2044 725.277 19.8983 725.489 19.5388C726.13 19.859 726.697 20.1777 727.201 20.494C727.115 22.1626 726.961 23.6834 726.818 25.0889L726.817 25.0951C726.714 26.1128 726.617 27.07 726.556 27.9791C726.359 30.9517 726.561 33.4818 728.696 35.3319C730.741 37.1034 734.424 38.1134 740.658 38.6857C746.942 39.2625 756.008 39.4041 769.007 39.2792L769.151 39.2778L769.284 39.2234C772.346 37.9706 774.275 34.889 775.24 31.1953C775.935 28.5326 776.153 25.4779 775.914 22.3739C801.584 22.9135 833.189 22.9434 867.867 22.6537C980.519 27.1774 1139.62 29.2198 1263.07 17.4974L1263.19 17.4863L1263.3 17.4395C1263.44 17.38 1263.57 17.3106 1263.69 17.2274C1263.81 17.1516 1263.97 17.0221 1264.07 16.8196C1264.2 16.5722 1264.22 16.2705 1264.07 15.9987C1263.96 15.7781 1263.78 15.6496 1263.66 15.5804C1263.42 15.4386 1263.11 15.3452 1262.79 15.2738C1262.46 15.198 1262.04 15.1306 1261.56 15.0697C1259.64 14.8273 1256.4 14.6617 1252.02 14.559C1243.25 14.3532 1229.77 14.3978 1212.75 14.6154C1181.43 15.0157 1138.09 16.0022 1089.87 17.0996L1089.87 17.0997L1077.09 17.3903C1009.16 18.9328 933.09 20.6082 867.891 21.1534C830.899 19.6676 798.917 17.9142 774.858 16.293C773.914 12.8524 772.386 9.59809 770.273 7.04333C767.672 3.89871 764.162 1.79645 759.794 1.77926C750.518 0.45719 742.97 0.179643 737.243 1.243C736.185 1.32075 735.204 1.47075 734.304 1.71388C733.084 2.04379 732.012 2.54555 731.098 3.26106C728.677 4.53631 726.856 6.29979 725.682 8.60384C724.471 10.9799 723.979 13.8722 724.158 17.2891C723.139 16.8672 722.001 16.45 720.732 16.0375C718.929 15.4518 716.59 15.2222 713.383 15.2334C710.168 15.2447 706.017 15.4995 700.56 15.9175C697.711 16.1357 694.503 16.3987 690.88 16.6957L690.874 16.6962C680.599 17.5386 666.985 18.6546 648.766 19.7994C626.11 21.2229 596.338 22.6905 557.039 23.7285L554.333 23.6882C543.691 23.5286 533.004 23.3571 522.42 23.1873L522.42 23.1873L522.419 23.1873C489.631 22.6611 457.833 22.1508 431.458 22.0603C414.013 22.0005 398.93 22.1242 387.495 22.549C381.779 22.7613 376.964 23.0493 373.217 23.4285C370.592 23.6943 368.447 24.0084 366.875 24.3872C362.952 23.9537 360.318 23.2407 358.556 22.3456C357.189 21.6511 356.375 20.8601 355.879 20.0248C355.38 19.1839 355.168 18.2372 355.105 17.1711C355.05 16.2449 355.109 15.2762 355.172 14.2322L355.173 14.2305C355.183 14.0562 355.194 13.8799 355.204 13.7013C355.275 12.476 355.326 11.1668 355.149 9.8555C354.97 8.5332 354.559 7.19877 353.703 5.91425C352.849 4.63146 351.577 3.43565 349.729 2.35293C347.457 1.02193 345.708 0.357183 344.151 0.120851C342.584 -0.116911 341.272 0.0892859 339.916 0.394565C339.603 0.465175 339.285 0.541707 338.957 0.620523L338.956 0.620776C336.511 1.20857 333.54 1.92315 328.091 1.25564C324.669 0.836422 322.147 2.02923 320.362 4.23358C319.997 4.68387 319.665 5.17442 319.361 5.69915C317.762 6.46806 316.414 7.43687 315.485 8.62015C314.377 10.033 313.888 11.7288 314.264 13.6445C314.268 13.6629 314.272 13.6888 314.237 13.7512C314.193 13.8287 314.091 13.9514 313.879 14.107C313.448 14.4218 312.714 14.7615 311.636 15.1057C310.025 15.62 307.779 16.1036 304.95 16.5544C303.043 16.3412 300.817 16.1505 298.302 15.98C290.316 15.439 279.345 15.0984 266.225 14.9027C239.982 14.5111 205.095 14.6983 168.193 15.0265C156.179 15.1334 143.952 15.2552 131.741 15.3768L131.739 15.3768C83.7876 15.8544 36.0718 16.3296 2.40214 15.8899C1.5851 15.823 0.784253 15.7556 0 15.6878V17.3567ZM38.7945 18.106C35.0254 17.9301 31.3754 17.7478 27.8593 17.5594C58.1898 17.6096 94.9216 17.2437 131.771 16.8766C143.979 16.755 156.201 16.6333 168.207 16.5265C205.109 16.1983 239.98 16.0112 266.203 16.4025C279.229 16.5969 290.111 16.9338 298.043 17.466C289.835 18.3767 278.947 19.1032 266.13 19.6608C236.173 20.9642 195.76 21.3418 154.621 21.0102C113.483 20.6786 71.6297 19.638 38.7945 18.106ZM310.987 17.5814C310.554 17.4564 310.056 17.3378 309.497 17.2249C310.477 17.0034 311.344 16.7735 312.092 16.5347C313.219 16.1748 314.136 15.7764 314.764 15.3181C315.379 14.8684 315.903 14.2082 315.736 13.3557C315.45 11.8964 315.808 10.639 316.665 9.54602C317.08 9.01797 317.615 8.52383 318.258 8.06877C317.714 9.52242 317.314 11.1231 317.018 12.7875C316.495 15.7244 316.284 18.947 316.212 22.0554C315.254 20.9332 314.151 19.7398 312.881 18.4697L312.861 18.4493L312.839 18.4305C312.418 18.07 311.754 17.8026 310.987 17.5814ZM318.495 13.0503C318.917 10.6755 319.541 8.55151 320.436 6.85475C320.554 6.80242 320.674 6.75096 320.795 6.70037C324.47 5.17195 329.615 4.53552 334.698 4.93525C339.787 5.33551 344.686 6.76433 347.921 9.24379C349.53 10.4764 350.707 11.9525 351.317 13.6754C351.926 15.393 351.992 17.4156 351.282 19.7846C350.558 22.1956 350.638 24.7937 350.848 27.2095C350.905 27.8695 350.971 28.5109 351.035 29.1327L351.035 29.1387L351.036 29.1429C351.212 30.8501 351.372 32.4087 351.294 33.7946C351.189 35.6426 350.668 36.9394 349.341 37.713C347.933 38.5343 345.447 38.8779 341.106 38.2576C334.665 37.3374 329.627 37.5578 325.949 37.7188C325.33 37.7459 324.749 37.7713 324.206 37.7893C324.118 37.7103 324.039 37.63 323.969 37.5485C323.636 37.1619 323.429 36.6819 323.24 35.9899C323.152 35.6648 323.069 35.2964 322.977 34.8853C322.681 33.5695 322.288 31.8163 321.282 29.6456C320.515 27.99 319.393 26.0811 317.684 23.8659C317.713 20.2821 317.886 16.4687 318.495 13.0503ZM336.841 40.25C332.571 39.8937 329.689 39.5559 327.711 39.1494C331.146 39.0174 335.457 38.9659 340.894 39.7426C341.713 39.8596 342.481 39.9454 343.2 40.0006C341.462 40.1618 339.372 40.2493 336.841 40.25ZM352.531 35.7415L352.499 35.7931C352.665 35.1854 352.754 34.541 352.791 33.8794C352.877 32.3624 352.698 30.6231 352.517 28.8727C352.455 28.2736 352.393 27.6731 352.342 27.0798C352.135 24.6926 352.082 22.337 352.718 20.2156C353.508 17.5846 353.46 15.2322 352.731 13.1744C352.004 11.1218 350.62 9.4222 348.834 8.05324C345.28 5.32956 340.057 3.85212 334.815 3.43987C330.303 3.08495 325.681 3.51195 321.962 4.6834C323.383 3.19575 325.283 2.42274 327.909 2.74451C333.628 3.44526 336.817 2.67815 339.3 2.08071L339.303 2.08005C339.628 2.00186 339.941 1.92659 340.246 1.85791C341.534 1.56778 342.632 1.40755 343.926 1.60388C345.229 1.80164 346.793 2.37151 348.971 3.64722C350.66 4.6366 351.749 5.68516 352.455 6.74551C353.16 7.80413 353.507 8.9116 353.662 10.0565C353.818 11.2124 353.777 12.3957 353.707 13.6146C353.698 13.7709 353.688 13.9283 353.678 14.0865L353.676 14.1256C353.612 15.1643 353.547 16.2353 353.608 17.2595C353.679 18.4678 353.927 19.6737 354.589 20.7903C355.255 21.9126 356.304 22.8838 357.877 23.6829C359.34 24.4262 361.278 25.0311 363.837 25.4761C359.9 27.2123 357.528 28.9731 355.931 30.6815C354.608 32.0973 353.821 33.4892 353.154 34.6707L353.151 34.6761C352.936 35.055 352.734 35.4122 352.531 35.7415ZM321.793 36.385C321.929 36.8835 322.094 37.3631 322.338 37.8105C320.513 37.7706 319.462 37.4947 318.819 36.8526C318.162 36.1956 317.75 34.9679 317.75 32.5001C317.75 31.524 317.735 30.4424 317.719 29.2858L317.718 29.2809C317.706 28.3658 317.692 27.4037 317.685 26.4099C318.682 27.8593 319.395 29.1412 319.921 30.2762C320.852 32.2851 321.197 33.8177 321.489 35.1184C321.59 35.5646 321.684 35.9836 321.793 36.385ZM375.009 24.8393C374.78 24.836 374.554 24.8321 374.331 24.8277C377.885 24.4984 382.331 24.2419 387.551 24.048C398.955 23.6243 414.013 23.5005 431.453 23.5603C456.084 23.6448 485.444 24.0955 515.932 24.5834C476.953 25.1903 430.477 25.3736 375.009 24.8393ZM672.636 24.1155C649.695 24.6057 621.046 24.5073 590.512 24.1694C613.932 23.2965 633.112 22.286 648.859 21.2965C667.096 20.1506 680.733 19.0327 691.009 18.1902L691.015 18.1897C694.634 17.893 697.835 17.6306 700.674 17.4131C706.132 16.9951 710.234 16.7445 713.388 16.7334C716.551 16.7224 718.696 16.9536 720.268 17.4641C721.741 17.9426 723.013 18.4216 724.112 18.8984C724.033 18.9932 723.914 19.1053 723.732 19.2342C723.233 19.5875 722.415 19.9517 721.242 20.3069C718.909 21.0135 715.396 21.6201 710.831 22.1311C701.714 23.1517 688.562 23.7752 672.636 24.1155ZM727.26 18.7826C726.784 18.512 726.267 18.2433 725.708 17.9765C725.416 14.3873 725.877 11.5254 727.018 9.28478C727.376 8.58306 727.804 7.93554 728.303 7.34084C727.472 9.67027 727.142 12.7558 727.25 16.7711C727.269 17.4639 727.271 18.1339 727.26 18.7826ZM730.099 6.91665C730.577 5.9132 731.18 5.12959 731.921 4.52378C732.239 4.35986 732.571 4.20438 732.915 4.05726C734.237 3.49176 735.742 3.052 737.431 2.73316C739.102 2.61724 741.039 2.68785 743.266 2.87262C745.31 3.04219 747.545 3.30176 750.003 3.58725C751.847 3.80134 753.816 4.03001 755.923 4.24622C763.106 4.9827 766.577 6.93573 768.258 9.1576C769.944 11.386 769.981 14.0709 769.812 16.7026L769.811 16.7052C769.811 16.7075 769.811 16.7098 769.811 16.7121L769.81 16.7219V16.7238C769.755 17.6487 769.74 18.8451 769.739 19.8022C769.738 20.2863 769.741 20.7133 769.744 21.0194C769.745 21.1725 769.747 21.2955 769.748 21.3804L769.75 21.4781L769.75 21.4905V21.5037L769.75 21.5103V21.5121L769.748 21.6882L769.843 21.8609L769.843 21.8614L769.843 21.8621L769.847 21.8699L769.867 21.9063L769.895 21.9606C769.909 21.988 769.926 22.0209 769.945 22.059C770.013 22.195 770.11 22.3972 770.224 22.6548C770.452 23.1709 770.745 23.9053 770.999 24.7735C771.513 26.5266 771.848 28.7435 771.277 30.7993C770.721 32.8036 769.276 34.7523 766.016 35.986C762.712 37.2363 757.54 37.7491 749.593 36.7558C741.601 35.7568 737.463 34.4675 735.302 33.0547C734.246 32.3644 733.684 31.6578 733.362 30.951C733.033 30.2287 732.927 29.4481 732.876 28.5487C732.863 28.309 732.854 28.06 732.845 27.8031C732.787 26.1869 732.719 24.2589 731.42 22.3452C730.813 21.4499 729.951 20.5728 728.734 19.7136C728.768 18.7616 728.778 17.7667 728.75 16.7305C728.626 12.1432 729.098 9.02092 730.099 6.91665ZM767.619 6.42176C765.843 5.05804 763.3 3.97129 759.711 3.27915H759.74C762.837 3.27915 765.466 4.46007 767.619 6.42176ZM771.35 16.0537C771.445 14.0052 771.358 11.7026 770.284 9.58163C771.564 11.522 772.564 13.7857 773.268 16.1853C772.623 16.1413 771.984 16.0975 771.35 16.0537ZM771.3 17.5538C772.082 17.6078 772.874 17.662 773.674 17.7164C773.773 18.1363 773.864 18.5591 773.946 18.9838C774.065 19.6001 774.165 20.219 774.246 20.8375C773.241 20.8153 772.245 20.7922 771.259 20.7684L771.3 17.5538ZM837.436 21.3233C814.615 21.3793 793.729 21.2501 775.762 20.8703C775.672 20.145 775.558 19.42 775.419 18.6997C775.362 18.4065 775.302 18.1138 775.237 17.8219C792.351 18.9713 813.428 20.1858 837.436 21.3233ZM771.696 22.2793C772.592 22.3007 773.495 22.3214 774.406 22.3414C774.653 25.3513 774.448 28.2927 773.788 30.8163C772.896 34.2329 771.214 36.7476 768.845 37.7807C767.623 37.7922 766.437 37.8014 765.286 37.8081C765.729 37.6796 766.149 37.5396 766.547 37.389C770.224 35.9977 772.029 33.6964 772.723 31.2007C773.402 28.7565 772.987 26.2234 772.438 24.3516C772.198 23.53 771.926 22.8201 771.696 22.2793ZM734.481 34.3102C736.338 35.5242 739.306 36.5684 744.058 37.4371C742.893 37.3663 741.807 37.2848 740.795 37.1919C734.545 36.6182 731.321 35.6212 729.679 34.1981C728.127 32.8536 727.859 31.0017 728.053 28.0783C728.108 27.2496 728.2 26.3386 728.301 25.3487L728.301 25.3475C728.419 24.1823 728.548 22.9079 728.641 21.5295C729.318 22.0947 729.814 22.649 730.179 23.1876C731.219 24.7198 731.277 26.1911 731.341 27.8071L731.341 27.8139C731.352 28.0825 731.363 28.3552 731.379 28.6328C731.432 29.5828 731.549 30.5906 731.997 31.573C732.452 32.571 733.22 33.4855 734.481 34.3102ZM1259.19 16.3545C1147.6 26.6406 1007.84 25.8937 899.615 22.3144C957.005 21.5808 1019.96 20.1881 1077.12 18.8899L1089.9 18.5993L1089.9 18.5993C1138.12 17.5018 1181.46 16.5155 1212.77 16.1153C1229.79 15.8976 1243.25 15.8535 1251.99 16.0586C1254.96 16.1282 1257.37 16.2263 1259.19 16.3545Z" fill="#151515"/>
</svg>
