<svg width="935" height="212" viewBox="0 0 935 212" fill="none" xmlns="http://www.w3.org/2000/svg">
<path fill-rule="evenodd" clip-rule="evenodd" d="M373.325 48.3461C372.983 48.4314 372.578 48.5926 372.122 48.8159C361.384 53.2215 351.167 61.77 341.629 70.3538C339.994 71.8252 338.38 73.2966 336.787 74.7492L336.779 74.7559C330.88 80.1336 325.266 85.2519 319.933 89.1492C318.119 90.1753 316.148 91.4042 314.055 92.9741L314.871 94.2288C316.79 93.1565 318.746 91.8695 320.736 90.4186C322.103 89.6471 323.388 88.9879 324.583 88.3751C324.821 88.2531 325.055 88.1329 325.286 88.014C327.175 87.0404 328.871 86.1333 330.249 84.9967L330.224 85.1182C328.683 92.6349 326.973 100.973 329.534 110.626C315.132 111.456 284.871 112.481 253.879 112.622C222.962 112.763 191.394 112.022 174.103 109.346C173.922 108.706 173.73 108.051 173.527 107.382L173.497 107.282L173.44 107.194C172.443 105.642 171.049 104.803 169.479 104.289C166.392 102.585 162.861 101.648 159.201 101.245C154.625 97.7985 149.75 90.8579 146.066 74.1335C145.728 72.6006 144.833 71.6263 143.551 71.0594C142.327 70.5187 140.767 70.3536 139.052 70.3149C137.913 70.2891 136.644 70.3197 135.302 70.352C134.621 70.3684 133.921 70.3853 133.21 70.3955C132.528 70.4053 131.829 70.4091 131.117 70.4012C130.058 70.2529 128.953 70.115 127.807 69.9876C113.462 68.3917 92.4298 68.3879 75.0032 69.907C66.2924 70.6663 58.4458 71.809 52.7715 73.3363C50.9732 73.8204 49.3734 74.3481 48.0247 74.9236C47.0005 74.9512 46.0556 74.958 45.1984 74.9411C45.0003 73.9208 44.7538 73.0594 44.4454 72.3973C44.1089 71.6752 43.6186 71.0151 42.8695 70.7883C42.0869 70.5514 41.3197 70.8703 40.6445 71.4066C39.8206 72.0612 39.2091 72.702 38.9413 73.3419C38.7995 73.6808 38.7393 74.0551 38.8344 74.4345C38.9295 74.8141 39.158 75.1106 39.4332 75.3338C39.9512 75.7539 40.7364 75.9972 41.6161 76.1539C42.274 76.2711 43.0477 76.3498 43.9208 76.3965C43.9716 76.7508 44.0188 77.1249 44.0625 77.5182C43.5232 78.1679 43.2058 78.8977 43.2217 79.7157C43.2626 81.8242 42.9978 85.6022 42.6677 90.3128C42.6008 91.2664 42.5313 92.2582 42.4611 93.2821C42.0462 99.3341 41.6125 106.452 41.5931 113.246C41.5737 120.025 41.9658 126.542 43.228 131.369C43.8584 133.78 44.7221 135.836 45.9133 137.293C46.9693 138.586 48.2927 139.415 49.9018 139.583C50.4549 147.923 57.8661 152.198 64.9659 152.233C68.6343 152.252 72.3219 151.153 75.0845 148.84C77.7225 146.631 79.4695 143.352 79.5661 139.022C83.8179 138.766 89.2548 138.472 95.1229 138.201C97.6841 138.38 100.298 138.633 102.954 138.892L103.166 138.912C111.976 139.771 121.202 140.671 130.132 138.975C132.475 138.989 134.285 138.617 135.71 138.296C135.829 138.269 135.944 138.243 136.055 138.218L136.056 138.217C136.63 138.087 137.116 137.977 137.559 137.908C137.813 137.869 138.038 137.846 138.24 137.841C138.75 146.152 145.582 151.138 152.256 151.633C155.696 151.887 159.163 150.96 161.753 148.628C163.208 147.317 164.359 145.588 165.073 143.43C165.831 142.021 166.378 140.403 166.66 138.575C170.015 138.851 173.626 137.305 175.629 133.349C177.428 129.794 177.876 124.396 175.833 116.792C175.53 115.057 175.12 113.18 174.592 111.151C188.758 114.61 217.144 116.993 246.869 117.52C277.58 118.063 309.877 116.628 329.586 112.296C329.566 112.423 329.545 112.559 329.522 112.706C329.373 113.667 329.169 115.044 328.949 116.707C328.51 120.031 328.007 124.504 327.755 129.092C327.504 133.672 327.5 138.404 328.075 142.229C328.361 144.141 328.798 145.864 329.442 147.241C330.085 148.613 330.973 149.72 332.205 150.258C334.188 151.126 337.185 151.729 343.402 152.13C350.684 153.129 359.585 154.009 369.066 154.357C383.695 154.895 399.755 154.171 413.386 150.646C413.902 150.532 414.356 150.411 414.742 150.283C416.545 149.682 417.723 148.464 418.403 146.671C419.064 144.926 419.256 142.64 419.177 139.841C419.067 135.965 418.425 130.906 417.624 124.598L417.624 124.596C417.271 121.816 416.888 118.794 416.505 115.524L416.502 115.145C416.508 115.137 416.515 115.128 416.521 115.118C416.697 114.877 417.057 114.546 417.661 114.13C418.852 113.311 420.777 112.311 423.37 111.165C428.541 108.881 436.229 106.081 445.663 103.05C464.524 96.9889 490.294 90.023 516.714 84.4151C529.69 81.6607 542.815 79.2358 555.349 77.4064C568.465 76.1668 582.601 75.4745 597.794 75.5665C595.763 77.2389 594.027 79.304 592.705 81.7063C588.904 88.6169 588.59 98.2078 594.363 109.105C600.13 119.988 611.971 132.198 632.54 144.489L632.864 144.683L633.214 144.538C658.66 133.91 670.753 119.198 676.228 106.803C676.398 106.42 676.563 106.041 676.724 105.666C677.269 104.789 678.194 103.987 679.549 103.268C681.421 102.277 684.026 101.494 687.315 100.912C690.249 100.393 693.691 100.041 697.579 99.8344C699.908 100.737 702.426 101.641 705.123 102.541C720.316 107.61 741.26 112.559 766.349 116.317C814.461 123.523 877.876 126.356 945.322 117.224C948.542 116.917 951.472 116.504 954.076 115.973L953.815 114.496C950.914 114.931 948.02 115.344 945.134 115.735C930.828 117.091 910.598 116.327 887.509 114.503C864.429 112.68 838.569 109.806 813.043 106.969L813.042 106.969C807.38 106.34 801.735 105.712 796.141 105.098C765.336 101.719 736.05 98.7545 714.024 98.2C708.066 98.05 702.626 98.0759 697.823 98.3197C693.767 96.737 690.318 95.167 687.522 93.6442C685.302 92.4349 683.509 91.2636 682.155 90.1497C680.818 89.0504 679.95 88.0392 679.501 87.1399C676.849 78.4169 669.786 72.1417 660.988 70.8039C655.044 69.9 648.373 71.257 641.789 75.5425C639.416 76.8243 637.247 78.5276 635.417 80.6794C634.636 81.439 633.86 82.2449 633.091 83.0982C632.973 82.8929 632.848 82.691 632.718 82.4926C630.805 77.7688 626.906 74.8207 622.346 73.3702C618.801 71.5124 615.085 70.6486 611.476 70.6639C608.463 70.6767 605.534 71.3034 602.856 72.4681C599.299 72.3238 595.517 72.3176 591.552 72.4341C580.596 72.7561 568.193 74.0169 555.168 75.9168C512.385 79.9645 480.399 89.8135 457.879 97.2931C455.768 97.994 453.743 98.6734 451.801 99.3249C446.718 101.03 442.206 102.544 438.23 103.751C432.726 105.422 428.327 106.481 424.929 106.654C421.535 106.827 419.313 106.111 417.941 104.431C417.087 103.384 416.501 101.894 416.219 99.8424C416.171 98.185 416.119 96.5793 416.063 95.0433C416.002 93.3786 415.967 92.1797 415.942 91.3413C415.928 90.8601 415.917 90.4977 415.907 90.2342C415.88 89.5272 415.861 89.1837 415.64 88.8232C415.611 88.7752 415.589 88.7419 415.569 88.7125C415.534 88.6582 415.506 88.6168 415.455 88.5189C415.383 88.3797 415.277 88.1443 415.13 87.7236C414.912 87.0989 414.614 86.0932 414.209 84.435C415.155 85.1473 416.448 86.1082 417.94 87.1827C421.071 89.4375 425.096 92.2063 428.631 94.2252L429.375 92.9227C423.153 89.3689 416.251 83.7834 409.285 77.6872C408.942 77.3401 408.583 76.977 408.208 76.5995C404.97 73.3383 400.589 69.0038 396.018 64.7147C391.451 60.4287 386.68 56.1748 382.667 53.0821C380.663 51.5375 378.827 50.266 377.286 49.4249C376.516 49.0046 375.799 48.6798 375.157 48.4853C374.528 48.2951 373.892 48.2047 373.325 48.3461ZM170.529 106.714C169.998 106.338 169.447 105.991 168.878 105.671C168.566 105.574 168.238 105.488 167.896 105.41C168.816 105.782 169.704 106.19 170.529 106.714ZM156.635 101.047C152.502 97.1999 148.451 90.3992 145.235 77.1946C146.456 85.8179 148.419 91.4799 150.725 95.2412C152.487 98.1154 154.457 99.8935 156.481 101.041C156.532 101.043 156.584 101.045 156.635 101.047ZM144.749 75.1179C144.699 74.899 144.65 74.6784 144.601 74.4562C144.373 73.4203 143.819 72.8181 142.944 72.4313C142.01 72.0183 140.705 71.8526 139.018 71.8145C138.835 71.8103 138.648 71.8077 138.459 71.8063C138.913 71.9269 139.347 72.0514 139.759 72.1796C141.241 72.6413 142.477 73.165 143.379 73.7665C143.949 74.1465 144.439 74.5934 144.749 75.1179ZM128.798 71.8309C129.547 71.8699 130.283 71.8909 131.003 71.9C134.342 72.3711 137.166 72.9428 139.313 73.6117C140.734 74.0544 141.816 74.527 142.547 75.0146C143.294 75.5124 143.553 75.941 143.595 76.2604C144.815 85.6332 146.889 91.854 149.446 96.0252C150.777 98.1964 152.235 99.8051 153.758 101.01C153.11 101.021 152.464 101.045 151.82 101.081C145.553 101.428 139.417 102.873 134.841 104.384C134.805 103.562 134.734 102.697 134.633 101.801C134.324 99.042 133.728 95.902 132.988 92.6489C132.873 91.71 132.742 90.7556 132.597 89.7925C131.666 83.6043 130.175 77.0148 128.798 71.8309ZM100.805 70.2819C92.167 70.318 83.2578 70.6931 75.1335 71.4013C66.7658 72.1307 59.2652 73.2106 53.7648 74.626C57.9363 74.3332 62.8168 73.8671 68.1035 73.3331C69.9133 73.1503 71.7694 72.9596 73.659 72.7655C81.8573 71.9235 90.6856 71.0167 99.0949 70.403C99.6669 70.3612 100.237 70.3208 100.805 70.2819ZM48.3574 76.4145C53.5017 76.2587 60.4804 75.6108 68.2543 74.8255C70.0695 74.6421 71.9294 74.4511 73.8214 74.2568C82.0187 73.4148 90.8192 72.511 99.2041 71.899C109.29 71.1629 118.721 70.8537 125.741 71.5717C126.141 73.0184 126.603 74.6304 127.096 76.3543L127.097 76.3546C128.426 80.9982 129.988 86.454 131.224 91.6826C131.321 92.0927 131.416 92.5011 131.509 92.9072C131.786 95.1777 131.965 97.3394 132.011 99.2933C132.076 102.079 131.867 104.375 131.325 105.954C131.218 106.266 131.101 106.541 130.976 106.782C130.244 105.544 129.388 104.655 128.499 104.06C127.479 103.378 126.419 103.089 125.49 103.129C124.581 103.168 123.712 103.536 123.25 104.267C122.757 105.048 122.876 106.001 123.485 106.852C124.078 107.68 125.161 108.475 126.784 109.175C128.182 109.779 129.454 109.87 130.53 109.337C130.968 110.511 131.317 111.95 131.514 113.703C132.054 118.511 131.438 125.601 128.443 135.801C119.32 135.737 106.441 136.176 95.1478 136.698C89.734 136.322 84.4605 136.271 79.5107 137.197C78.7821 128.475 71.5151 123.95 64.4529 123.914C60.7695 123.896 57.0759 125.089 54.3176 127.584C51.9408 129.734 50.3008 132.813 49.9419 136.805C49.6378 136.426 49.3472 135.957 49.0698 135.393C48.1407 133.502 47.472 130.733 47.0048 127.335C46.0724 120.553 45.9753 111.536 46.0023 102.687C46.007 101.147 46.0155 99.6107 46.0239 98.093C46.0634 90.9268 46.1008 84.1676 45.7274 79.2395C45.6966 78.8332 45.6629 78.437 45.6259 78.0519C45.9144 77.7915 46.2806 77.5224 46.7368 77.246C47.205 76.9625 47.7464 76.6852 48.3574 76.4145ZM44.4966 85.5291C44.4026 87.0185 44.2866 88.6719 44.1623 90.444C44.0958 91.3926 44.0268 92.3751 43.9576 93.3847C43.543 99.4333 43.1124 106.51 43.0931 113.25C43.0738 120.004 43.4686 126.36 44.6792 130.99C45.2852 133.307 46.0793 135.126 47.0748 136.344C47.5848 136.968 48.1431 137.431 48.7612 137.727C48.3729 137.24 48.0284 136.675 47.7234 136.054C46.6865 133.943 45.9922 130.983 45.5188 127.539C44.5698 120.637 44.4754 111.516 44.5023 102.683C44.5071 101.128 44.5156 99.5826 44.5239 98.0592L44.5239 98.059C44.5485 93.5845 44.572 89.2999 44.4966 85.5291ZM51.3993 139.489C51.8945 146.779 58.3573 150.7 64.9733 150.733C68.3571 150.75 71.68 149.734 74.1215 147.69C74.3582 147.492 74.5871 147.284 74.8074 147.065C74.6897 147.17 74.5699 147.273 74.448 147.374C71.9506 149.433 68.6213 150.516 65.3042 150.619C61.9874 150.722 58.613 149.846 56.0302 147.899C53.5749 146.048 51.8726 143.254 51.6201 139.53C51.5457 139.519 51.4721 139.505 51.3993 139.489ZM75.4085 130.473C72.8058 127.155 68.6338 125.435 64.4455 125.414C61.0766 125.398 57.763 126.49 55.3239 128.697C53.0652 130.74 51.5068 133.781 51.3767 137.92C51.4492 137.947 51.5223 137.971 51.596 137.991C51.7263 134.078 53.2951 131.126 55.658 129.141C58.1698 127.031 61.5197 126.061 64.8458 126.111C68.7402 126.169 72.7446 127.647 75.4085 130.473ZM106.534 137.729C114.228 138.445 121.998 138.937 129.529 137.561C129.562 137.479 129.595 137.396 129.627 137.313C129.419 137.31 129.208 137.308 128.994 137.306C122.783 137.246 114.698 137.435 106.534 137.729ZM131.686 135.85C132.81 131.84 133.177 126.883 133.375 122.342C133.429 121.109 133.47 119.912 133.509 118.767L133.509 118.766L133.509 118.766C133.56 117.263 133.609 115.849 133.679 114.556C133.791 112.491 133.955 110.868 134.24 109.827C138.79 108.04 145.652 105.85 152.668 105.25C159.815 104.638 166.977 105.688 172.067 110.317C173.05 112.777 173.806 115.038 174.366 117.111C175.568 124.02 174.997 128.375 173.69 131.003C172.796 132.803 171.554 133.805 170.258 134.301C169.124 134.735 167.914 134.796 166.808 134.618C166.257 130.165 164.281 126.882 161.566 124.761C158.75 122.562 155.188 121.651 151.718 121.921C147.022 122.287 142.436 124.829 140.01 129.334C138.94 131.233 138.29 133.548 138.216 136.261C136.655 136.046 134.404 135.916 131.686 135.85ZM131.216 137.34C131.203 137.378 131.189 137.416 131.175 137.454C131.572 137.436 131.951 137.406 132.314 137.368C131.958 137.357 131.592 137.348 131.216 137.34ZM163.691 142.831C163.103 143.897 162.383 144.814 161.57 145.59C159.226 147.826 156.043 148.944 152.807 148.986C146.309 149.071 139.886 144.864 139.736 137.134C139.682 134.319 140.304 131.916 141.389 129.944C141.898 129.068 142.505 128.304 143.184 127.648C145.328 125.578 148.252 124.54 151.263 124.568C157.262 124.623 163.548 128.908 164.385 137.586C164.422 139.6 164.167 141.341 163.691 142.831ZM165.15 133.714C163.412 128.019 159.166 124.592 154.538 123.473C156.748 123.741 158.87 124.559 160.643 125.944C162.804 127.632 164.482 130.191 165.15 133.714ZM166.826 137.084C166.848 136.775 166.863 136.461 166.871 136.142C168.116 136.3 169.482 136.205 170.794 135.702C171.853 135.296 172.858 134.632 173.72 133.651C171.977 136.265 169.322 137.277 166.826 137.084ZM130.134 135.82C130.09 135.819 130.045 135.818 130 135.818C130.33 134.682 130.63 133.583 130.903 132.519C130.694 133.682 130.441 134.791 130.134 135.82ZM132.523 110.751C132.627 110.082 132.756 109.497 132.92 109.019C133.151 108.345 133.289 107.497 133.341 106.498C133.095 106.59 132.855 106.681 132.623 106.772C132.394 107.359 132.107 107.892 131.748 108.338C132.046 109.056 132.307 109.859 132.523 110.751ZM133.357 104.896C133.282 104.923 133.206 104.95 133.132 104.977C133.202 104.628 133.262 104.263 133.312 103.884C133.333 104.232 133.349 104.569 133.357 104.896ZM134.861 105.959C134.846 106.707 134.791 107.407 134.69 108.047C139.288 106.312 145.826 104.329 152.54 103.755C154.607 103.578 156.703 103.534 158.77 103.675C158.559 103.606 158.348 103.533 158.138 103.455C157.445 103.198 156.754 102.893 156.069 102.526C154.691 102.48 153.297 102.501 151.903 102.579C145.579 102.929 139.372 104.43 134.861 105.959ZM337.831 75.8281C334.239 79.104 330.719 82.3134 327.286 85.2206C328.84 84.2975 330.034 83.3689 330.889 82.1438L330.939 82.071L331.006 82.0121L331.504 82.5727C331.006 82.0121 331.006 82.012 331.006 82.0118L331.007 82.0106L331.012 82.0062L331.032 81.9887L331.11 81.9198L331.412 81.6514C331.678 81.4163 332.068 81.0714 332.567 80.6321C333.564 79.7533 334.995 78.4965 336.73 76.9837C340.201 73.9584 344.893 69.9082 349.773 65.8105C353.61 62.5886 357.568 59.3339 361.143 56.5236C354.792 60.7857 348.616 66.0837 342.633 71.4688C341.02 72.9204 339.42 74.3793 337.834 75.8253L337.832 75.8267L337.831 75.8281ZM337.716 78.1145C336.168 79.4632 334.864 80.6081 333.893 81.4623C342.643 80.2249 355.803 78.875 369.67 78.454C383.875 78.0227 398.881 78.5636 410.656 81.2265C410.005 80.5582 409.196 79.7321 408.26 78.784C405.239 76.1401 402.219 73.4112 399.252 70.7247L398.559 70.0976C393.862 65.8443 389.304 61.7164 385.073 58.1952C380.756 54.6018 376.82 51.6739 373.461 49.8956C373.218 49.9904 372.975 50.0875 372.732 50.1867C372.125 50.4882 371.34 50.95 370.39 51.5711C368.853 52.5753 366.97 53.9361 364.867 55.5367C360.662 58.7366 355.61 62.8682 350.738 66.9593C345.867 71.0491 341.183 75.0928 337.716 78.1145ZM331.381 90.403C331.355 89.3559 331.312 88.4062 331.261 87.5598C330.038 93.6889 329.009 100.169 330.351 107.429C331.324 100.428 331.488 94.6244 331.381 90.403ZM332.881 90.3653C333.007 95.3943 332.757 102.606 331.256 111.378C331.62 133.896 332.636 145.441 333.162 148.937C336.001 149.492 339.524 150.082 343.551 150.636C343.841 150.655 344.138 150.673 344.444 150.69C343.038 146.262 341.702 139.354 341.566 133.179C341.493 129.836 341.768 126.645 342.614 124.16C343.46 121.677 344.94 119.738 347.361 119.264C350.363 118.676 353.561 118.147 356.561 118.26C359.57 118.373 362.45 119.133 364.749 121.188C367.049 123.242 368.664 126.498 369.336 131.391C369.984 136.116 369.761 142.425 368.383 150.788C378.595 150.938 388.648 150.891 396.847 150.595C401.064 150.442 404.783 150.223 407.778 149.932C409.971 149.719 411.743 149.47 413.03 149.189C413.308 149.117 413.584 149.044 413.859 148.97C414.573 145.067 414.922 136.43 415.007 126.426C415.037 122.968 415.035 119.358 415.007 115.74C414.893 115.442 414.904 115.148 414.983 114.877C414.858 112.099 414.238 104.689 413.616 97.638C413.275 93.7643 412.935 90.0154 412.68 87.2347C412.553 85.8444 412.447 84.6963 412.373 83.8958L412.317 83.2897L383.418 81.8602C384.917 83.5239 385.681 85.0739 385.924 86.5675C386.234 88.468 385.676 90.1395 385 91.6244C384.786 92.0934 384.547 92.5707 384.318 93.0297C384.191 93.2828 384.067 93.5304 383.952 93.7679C383.616 94.4593 383.328 95.1136 383.139 95.7631C382.815 96.8751 382.779 97.9741 383.374 99.1884C387.125 98.1443 389.626 97.5343 394.009 97.8187C394.459 97.7937 394.936 97.7579 395.426 97.7212C396.354 97.6516 397.326 97.5787 398.24 97.5696C399.673 97.5554 401.14 97.6884 402.389 98.2811C402.984 98.5632 403.517 98.9432 403.969 99.4392C404.925 100.258 405.434 101.406 405.613 102.89C405.792 104.38 405.646 106.268 405.255 108.635C405.252 109.167 405.221 109.675 405.162 110.158C405.15 110.497 405.142 110.846 405.133 111.2L405.129 111.398L405.129 111.401C405.109 112.241 405.089 113.11 405.029 113.926C404.966 114.803 404.854 115.663 404.632 116.397C404.414 117.121 404.057 117.826 403.429 118.265C402.803 118.704 402.022 118.945 401.201 119.084C400.375 119.223 399.45 119.269 398.495 119.276C397.716 119.282 396.932 119.264 396.146 119.246L396.146 119.246C395.244 119.225 394.339 119.205 393.438 119.22C393.136 119.237 392.861 119.245 392.618 119.249C391.152 119.703 389.374 120.006 387.601 120.004C385.792 120.001 383.927 119.679 382.405 118.813C380.853 117.931 379.689 116.498 379.323 114.384C378.965 112.321 379.378 109.679 380.786 106.341C380.996 105.368 381.019 104.415 381.042 103.484C381.052 103.106 381.061 102.732 381.082 102.362C381.118 101.753 381.191 101.119 381.42 100.587C381.552 100.278 381.74 99.9998 381.993 99.7783C381.243 98.2015 381.295 96.731 381.699 95.3439C381.924 94.5707 382.257 93.8255 382.603 93.1128C382.735 92.8398 382.867 92.577 382.996 92.3181C383.216 91.8792 383.43 91.4513 383.635 91.0027C384.271 89.6061 384.681 88.2675 384.444 86.8087C384.215 85.402 383.36 83.7546 381.222 81.7737L332.37 83.2961C332.413 83.6181 332.463 84.0289 332.516 84.5244C332.659 85.871 332.817 87.8441 332.881 90.3653ZM329.961 120.812C330.359 135.223 331.026 143.821 331.497 147.788C331.249 147.459 331.016 147.065 330.801 146.605C330.242 145.411 329.834 143.845 329.558 142.007C329.007 138.332 329.003 133.72 329.253 129.174C329.413 126.252 329.677 123.373 329.961 120.812ZM246.895 116.02C272.809 116.479 299.754 115.523 319.267 112.633C303.131 113.327 278.741 114.009 253.885 114.122C232.613 114.219 210.963 113.9 193.849 112.811C208.469 114.525 227.357 115.674 246.895 116.02ZM369.121 152.858C365.577 152.728 362.115 152.523 358.79 152.265C361.669 152.239 364.311 152.22 365.992 152.25C366.49 152.259 366.989 152.267 367.487 152.275C377.694 152.435 387.801 152.402 396.125 152.121C387.196 153.045 377.916 153.182 369.121 152.858ZM355.48 150.796C351.776 150.829 348.179 150.848 346.104 150.775C345.162 146.663 344.241 139.608 344.235 133.482C344.232 130.272 344.48 127.379 345.078 125.312C345.377 124.276 345.748 123.507 346.171 123.01C346.576 122.533 347.009 122.322 347.505 122.322C349.28 122.322 350.956 122.227 352.508 122.133L352.827 122.114L352.827 122.114C354.263 122.026 355.579 121.946 356.794 121.946C359.415 121.945 361.375 122.319 362.815 123.619C364.264 124.928 365.344 127.317 365.814 131.745C366.27 136.045 366.139 142.136 365.324 150.741C363.344 150.722 360.451 150.75 357.447 150.778L357.445 150.778C356.793 150.784 356.135 150.79 355.48 150.796ZM366.829 150.764L366.867 150.765C368.264 142.368 368.476 136.155 367.85 131.595C367.209 126.925 365.7 124.049 363.75 122.306C361.8 120.564 359.306 119.864 356.505 119.759C353.693 119.653 350.644 120.149 347.649 120.736C347.519 120.761 347.392 120.793 347.268 120.831C347.346 120.825 347.425 120.822 347.505 120.822C349.23 120.822 350.866 120.73 352.418 120.636L352.748 120.616C354.171 120.529 355.531 120.446 356.794 120.446C359.501 120.445 361.948 120.816 363.82 122.506C365.683 124.188 366.822 127.035 367.305 131.587C367.776 136.016 367.637 142.19 366.829 150.764ZM416.496 127.634C416.402 136.337 416.102 144.019 415.496 148.238C416.163 147.748 416.651 147.06 417 146.139C417.555 144.677 417.755 142.631 417.677 139.883C417.586 136.659 417.12 132.61 416.496 127.634ZM416.811 112.895C416.697 112.972 416.588 113.05 416.482 113.128C416.451 110.31 416.404 107.507 416.344 104.788C416.481 104.994 416.626 105.191 416.779 105.379C418.59 107.598 421.405 108.336 425.005 108.152C425.705 108.116 426.441 108.046 427.213 107.943C425.578 108.589 424.091 109.207 422.763 109.793C420.149 110.948 418.121 111.993 416.811 112.895ZM509.481 84.4508C505.545 85.3243 501.636 86.2239 497.774 87.142C501.536 86.2184 505.437 85.3169 509.481 84.4508ZM381.54 80.2655L402.693 81.3118C392.582 79.8845 380.936 79.6126 369.715 79.9533C362.179 80.1821 354.852 80.6867 348.336 81.2978L381.48 80.265L381.51 80.2641L381.54 80.2655ZM395.376 107.701C395.469 104.272 395.131 101.248 394.867 99.3084C396.852 99.2876 398.473 99.3176 399.786 99.4768C401.278 99.6575 402.269 99.9945 402.923 100.52C403.273 100.925 403.56 101.446 403.764 102.121C404.15 103.398 404.245 105.242 403.853 107.886C401.448 108.106 398.451 107.983 395.376 107.701ZM395.308 109.201C398.281 109.472 401.235 109.6 403.694 109.405C403.682 109.615 403.673 109.827 403.665 110.04C403.484 111.471 403.037 112.617 402.434 113.539C401.636 114.762 400.534 115.637 399.315 116.263C397.379 117.257 395.194 117.599 393.619 117.706C394.648 114.899 395.131 111.956 395.308 109.201ZM400 117.597C401.284 116.938 402.503 116.012 403.446 114.715C403.386 115.184 403.305 115.603 403.196 115.963C403.019 116.55 402.797 116.877 402.569 117.037C402.2 117.294 401.666 117.484 400.951 117.605C400.573 117.669 400.161 117.711 399.718 117.738C399.812 117.692 399.907 117.645 400 117.597ZM393.815 109.054C393.637 111.895 393.122 114.928 391.988 117.77C389.185 117.86 386.329 117.548 384.365 116.724C383.329 116.289 382.625 115.746 382.262 115.13C381.92 114.548 381.819 113.795 382.206 112.763L382.216 112.736L382.224 112.708C382.536 111.625 382.43 110.373 382.324 109.327C382.312 109.218 382.301 109.112 382.29 109.007C382.246 108.584 382.206 108.194 382.186 107.827C382.178 107.684 382.174 107.551 382.174 107.427C382.686 107.505 383.26 107.594 383.883 107.691C386.157 108.044 389.097 108.502 392.147 108.866C392.699 108.932 393.256 108.995 393.815 109.054ZM380.747 112.386C380.735 112.422 380.722 112.459 380.711 112.495C380.735 111.974 380.805 111.408 380.927 110.793C380.942 111.338 380.91 111.835 380.79 112.267C380.775 112.307 380.761 112.346 380.747 112.386ZM384.153 106.214C383.508 106.114 382.913 106.022 382.379 105.941C382.507 105.043 382.529 104.148 382.547 103.383C382.556 103.042 382.564 102.727 382.58 102.449C382.614 101.863 382.68 101.454 382.798 101.179C382.897 100.949 383.013 100.846 383.207 100.792C387.07 99.712 389.365 99.0904 393.349 99.2835C393.612 101.179 393.961 104.17 393.88 107.552C393.36 107.497 392.841 107.438 392.325 107.376C389.301 107.015 386.419 106.567 384.153 106.214ZM43.0857 73.0308C43.3027 73.4965 43.4918 74.116 43.655 74.878C42.972 74.8328 42.3787 74.7662 41.8791 74.6772C41.0477 74.5291 40.5848 74.3364 40.3779 74.1687C40.3335 74.1327 40.3109 74.1055 40.3003 74.0901C40.2905 74.076 40.2894 74.0699 40.2894 74.0699C40.2894 74.0699 40.2871 74.0624 40.2895 74.042C40.2919 74.0201 40.3001 73.9805 40.325 73.921C40.439 73.6487 40.7927 73.2047 41.5776 72.5811C42.0875 72.1761 42.3402 72.1953 42.4349 72.224C42.563 72.2628 42.8074 72.4335 43.0857 73.0308ZM599.829 74.0834C595.319 74.0357 590.9 74.0569 586.573 74.141C588.278 74.0513 589.954 73.9818 591.596 73.9335C594.562 73.8463 597.416 73.8286 600.143 73.8858C600.038 73.9507 599.933 74.0166 599.829 74.0834ZM602.836 74.1252C602.938 74.0765 603.041 74.0285 603.144 73.9815C603.774 74.0088 604.396 74.0404 605.01 74.0766C604.936 74.1051 604.862 74.134 604.788 74.1631C604.136 74.1491 603.485 74.1364 602.836 74.1252ZM605.204 75.612C606.456 75.1082 607.781 74.702 609.144 74.4006C612.625 74.7465 615.8 75.2622 618.624 75.9641C623.349 77.139 627.003 78.8137 629.463 81.0196C630.199 81.8742 630.913 82.7958 631.6 83.7865C631.845 84.4997 632.042 85.2544 632.187 86.0515L632.602 88.3371L633.601 86.2403C634.413 84.539 635.399 83.0255 636.526 81.6935C638.517 79.7646 640.533 78.154 642.55 76.8361C645.607 75.1937 649.037 74.2908 652.527 74.0709C660.294 73.5818 668.239 76.4843 672.876 82.0148C677.466 87.4883 678.928 95.6762 673.494 106.07C668.068 116.447 655.778 128.976 632.95 142.951C627.498 139.146 619.501 132.555 612.096 124.679C604.498 116.597 597.588 107.231 594.639 98.1876C593.154 93.633 593.992 88.7131 596.137 84.5397C598.285 80.3577 601.695 77.0248 605.204 75.612ZM618.986 74.5085C620.763 74.9505 622.422 75.4685 623.945 76.0693C623.228 75.5859 622.5 75.15 621.766 74.7602L621.73 74.7491C619.781 74.1475 617.691 73.8315 615.574 73.7773C616.759 73.9943 617.897 74.2377 618.986 74.5085ZM609.057 72.8848C610.622 72.553 612.234 72.351 613.85 72.2892C613.056 72.2017 612.266 72.1605 611.483 72.1639C609.923 72.1705 608.389 72.3534 606.906 72.7002C607.634 72.755 608.351 72.8165 609.057 72.8848ZM674.026 81.051C669.042 75.1074 660.631 72.0775 652.501 72.5697C655.376 71.9573 658.157 71.8906 660.763 72.2869C668.984 73.5369 675.605 79.4083 678.083 87.6322C678.977 90.6019 678.95 93.5197 678.244 96.704C679.156 90.385 677.404 85.0804 674.026 81.051ZM643.233 138.094C658.495 127.661 667.975 118.064 673.208 109.594C668.252 118.961 659.241 129.377 643.233 138.094ZM595.689 108.403C599.871 116.297 607.41 125.016 619.491 134.018C616.688 131.482 613.804 128.685 611.004 125.707C603.353 117.569 596.264 108.009 593.213 98.6527C591.574 93.6288 592.523 88.2909 594.803 83.8541C596.557 80.4404 599.129 77.5013 602.009 75.6119C601.428 75.6029 600.848 75.5951 600.271 75.5884C597.723 77.3043 595.565 79.6195 594.02 82.4293C590.508 88.8128 590.103 97.8601 595.689 108.403ZM678.847 101.943C678.571 102.089 678.306 102.241 678.053 102.4C679.684 98.0904 680.574 94.2371 680.166 90.3909C680.484 90.6968 680.83 91.0026 681.202 91.3081C682.652 92.5011 684.532 93.7236 686.805 94.9615C688.966 96.1383 691.495 97.3365 694.37 98.5419C691.683 98.7544 689.236 99.0491 687.054 99.435C683.694 100.029 680.916 100.847 678.847 101.943ZM705.597 101.118C704.162 100.639 702.779 100.16 701.45 99.6802C705.283 99.5742 709.478 99.586 713.986 99.6995C735.939 100.252 765.162 103.209 795.977 106.59C801.566 107.203 807.207 107.83 812.866 108.458C838.394 111.296 864.284 114.173 887.391 115.998C901.916 117.146 915.371 117.88 926.961 117.923C866.507 124.301 810.218 121.37 766.571 114.833C741.544 111.085 720.689 106.153 705.597 101.118ZM53.0901 138.815C53.0142 134.902 54.4586 132.107 56.6229 130.289C58.8069 128.454 61.7843 127.565 64.8233 127.611C70.945 127.703 76.9014 131.521 77.0339 138.35C77.1008 141.797 75.6756 144.417 73.4938 146.216C71.2938 148.03 68.3002 149.025 65.2578 149.12C62.2151 149.214 59.1936 148.405 56.9331 146.701C54.6937 145.013 53.16 142.418 53.0901 138.815ZM127.665 105.307C128.428 105.817 129.232 106.663 129.919 107.964C129.906 107.971 129.893 107.978 129.88 107.985C129.335 108.262 128.549 108.304 127.378 107.798C125.879 107.151 125.074 106.495 124.705 105.979C124.351 105.485 124.433 105.203 124.518 105.068C124.636 104.882 124.962 104.653 125.555 104.628C126.128 104.603 126.877 104.78 127.665 105.307Z" fill="#D8D8D8"/>
<mask id="mask0_215_205" style="mask-type:alpha" maskUnits="userSpaceOnUse" x="0" y="0" width="741" height="212">
<circle cx="106" cy="106" r="106" fill="white"/>
<circle cx="370" cy="106" r="106" fill="white"/>
<circle cx="635" cy="106" r="106" fill="white"/>
</mask>
<g mask="url(#mask0_215_205)">
<path fill-rule="evenodd" clip-rule="evenodd" d="M373.325 48.3461C372.983 48.4314 372.578 48.5926 372.122 48.8159C361.384 53.2215 351.167 61.77 341.629 70.3538C339.994 71.8252 338.38 73.2966 336.787 74.7492L336.779 74.7559C330.88 80.1336 325.266 85.2519 319.933 89.1492C318.119 90.1753 316.148 91.4042 314.055 92.9741L314.871 94.2288C316.79 93.1565 318.746 91.8695 320.736 90.4186C322.103 89.6471 323.388 88.9879 324.583 88.3751C324.821 88.2531 325.055 88.1329 325.286 88.014C327.175 87.0404 328.871 86.1333 330.249 84.9967L330.224 85.1182C328.683 92.6349 326.973 100.973 329.534 110.626C315.132 111.456 284.871 112.481 253.879 112.622C222.962 112.763 191.394 112.022 174.103 109.346C173.922 108.706 173.73 108.051 173.527 107.382L173.497 107.282L173.44 107.194C172.443 105.642 171.049 104.803 169.479 104.289C166.392 102.585 162.861 101.648 159.201 101.245C154.625 97.7985 149.75 90.8579 146.066 74.1335C145.728 72.6006 144.833 71.6263 143.551 71.0594C142.327 70.5187 140.767 70.3536 139.052 70.3149C137.913 70.2891 136.644 70.3197 135.302 70.352C134.621 70.3684 133.921 70.3853 133.21 70.3955C132.528 70.4053 131.829 70.4091 131.117 70.4012C130.058 70.2529 128.953 70.115 127.807 69.9876C113.462 68.3917 92.4298 68.3879 75.0032 69.907C66.2924 70.6663 58.4458 71.809 52.7715 73.3363C50.9732 73.8204 49.3734 74.3481 48.0247 74.9236C47.0005 74.9512 46.0556 74.958 45.1984 74.9411C45.0003 73.9208 44.7538 73.0594 44.4454 72.3973C44.1089 71.6752 43.6186 71.0151 42.8695 70.7883C42.0869 70.5514 41.3197 70.8703 40.6445 71.4066C39.8206 72.0612 39.2091 72.702 38.9413 73.3419C38.7995 73.6808 38.7393 74.0551 38.8344 74.4345C38.9295 74.8141 39.158 75.1106 39.4332 75.3338C39.9512 75.7539 40.7364 75.9972 41.6161 76.1539C42.274 76.2711 43.0477 76.3498 43.9208 76.3965C43.9716 76.7508 44.0188 77.1249 44.0625 77.5182C43.5232 78.1679 43.2058 78.8977 43.2217 79.7157C43.2626 81.8242 42.9978 85.6022 42.6677 90.3128C42.6008 91.2664 42.5313 92.2582 42.4611 93.2821C42.0462 99.3341 41.6125 106.452 41.5931 113.246C41.5737 120.025 41.9658 126.542 43.228 131.369C43.8584 133.78 44.7221 135.836 45.9133 137.293C46.9693 138.586 48.2927 139.415 49.9018 139.583C50.4549 147.923 57.8661 152.198 64.9659 152.233C68.6343 152.252 72.3219 151.153 75.0845 148.84C77.7225 146.631 79.4695 143.352 79.5661 139.022C83.8179 138.766 89.2548 138.472 95.1229 138.201C97.6841 138.38 100.298 138.633 102.954 138.892L103.166 138.912C111.976 139.771 121.202 140.671 130.132 138.975C132.475 138.989 134.285 138.617 135.71 138.296C135.829 138.269 135.944 138.243 136.055 138.218L136.056 138.217C136.63 138.087 137.116 137.977 137.559 137.908C137.813 137.869 138.038 137.846 138.24 137.841C138.75 146.152 145.582 151.138 152.256 151.633C155.696 151.887 159.163 150.96 161.753 148.628C163.208 147.317 164.359 145.588 165.073 143.43C165.831 142.021 166.378 140.403 166.66 138.575C170.015 138.851 173.626 137.305 175.629 133.349C177.428 129.794 177.876 124.396 175.833 116.792C175.53 115.057 175.12 113.18 174.592 111.151C188.758 114.61 217.144 116.993 246.869 117.52C277.58 118.063 309.877 116.628 329.586 112.296C329.566 112.423 329.545 112.559 329.522 112.706C329.373 113.667 329.169 115.044 328.949 116.707C328.51 120.031 328.007 124.504 327.755 129.092C327.504 133.672 327.5 138.404 328.075 142.229C328.361 144.141 328.798 145.864 329.442 147.241C330.085 148.613 330.973 149.72 332.205 150.258C334.188 151.126 337.185 151.729 343.402 152.13C350.684 153.129 359.585 154.009 369.066 154.357C383.695 154.895 399.755 154.171 413.386 150.646C413.902 150.532 414.356 150.411 414.742 150.283C416.545 149.682 417.723 148.464 418.403 146.671C419.064 144.926 419.256 142.64 419.177 139.841C419.067 135.965 418.425 130.906 417.624 124.598L417.624 124.596C417.271 121.816 416.888 118.794 416.505 115.524L416.502 115.145C416.508 115.137 416.515 115.128 416.521 115.118C416.697 114.877 417.057 114.546 417.661 114.13C418.852 113.311 420.777 112.311 423.37 111.165C428.541 108.881 436.229 106.081 445.663 103.05C464.524 96.9889 490.294 90.023 516.714 84.4151C529.69 81.6607 542.815 79.2358 555.349 77.4064C568.465 76.1668 582.601 75.4745 597.794 75.5665C595.763 77.2389 594.027 79.304 592.705 81.7063C588.904 88.6169 588.59 98.2078 594.363 109.105C600.13 119.988 611.971 132.198 632.54 144.489L632.864 144.683L633.214 144.538C658.66 133.91 670.753 119.198 676.228 106.803C676.398 106.42 676.563 106.041 676.724 105.666C677.269 104.789 678.194 103.987 679.549 103.268C681.421 102.277 684.026 101.494 687.315 100.912C690.249 100.393 693.691 100.041 697.579 99.8344C699.908 100.737 702.426 101.641 705.123 102.541C720.316 107.61 741.26 112.559 766.349 116.317C814.461 123.523 877.876 126.356 945.322 117.224C948.542 116.917 951.472 116.504 954.076 115.973L953.815 114.496C950.914 114.931 948.02 115.344 945.134 115.735C930.828 117.091 910.598 116.327 887.509 114.503C864.429 112.68 838.569 109.806 813.043 106.969L813.042 106.969C807.38 106.34 801.735 105.712 796.141 105.098C765.336 101.719 736.05 98.7545 714.024 98.2C708.066 98.05 702.626 98.0759 697.823 98.3197C693.767 96.737 690.318 95.167 687.522 93.6442C685.302 92.4349 683.509 91.2636 682.155 90.1497C680.818 89.0504 679.95 88.0392 679.501 87.1399C676.849 78.4169 669.786 72.1417 660.988 70.8039C655.044 69.9 648.373 71.257 641.789 75.5425C639.416 76.8243 637.247 78.5276 635.417 80.6794C634.636 81.439 633.86 82.2449 633.091 83.0982C632.973 82.8929 632.848 82.691 632.718 82.4926C630.805 77.7688 626.906 74.8207 622.346 73.3702C618.801 71.5124 615.085 70.6486 611.476 70.6639C608.463 70.6767 605.534 71.3034 602.856 72.4681C599.299 72.3238 595.517 72.3176 591.552 72.4341C580.596 72.7561 568.193 74.0169 555.168 75.9168C512.385 79.9645 480.399 89.8135 457.879 97.2931C455.768 97.994 453.743 98.6734 451.801 99.3249C446.718 101.03 442.206 102.544 438.23 103.751C432.726 105.422 428.327 106.481 424.929 106.654C421.535 106.827 419.313 106.111 417.941 104.431C417.087 103.384 416.501 101.894 416.219 99.8424C416.171 98.185 416.119 96.5793 416.063 95.0433C416.002 93.3786 415.967 92.1797 415.942 91.3413C415.928 90.8601 415.917 90.4977 415.907 90.2342C415.88 89.5272 415.861 89.1837 415.64 88.8232C415.611 88.7752 415.589 88.7419 415.569 88.7125C415.534 88.6582 415.506 88.6168 415.455 88.5189C415.383 88.3797 415.277 88.1443 415.13 87.7236C414.912 87.0989 414.614 86.0932 414.209 84.435C415.155 85.1473 416.448 86.1082 417.94 87.1827C421.071 89.4375 425.096 92.2063 428.631 94.2252L429.375 92.9227C423.153 89.3689 416.251 83.7834 409.285 77.6872C408.942 77.3401 408.583 76.977 408.208 76.5995C404.97 73.3383 400.589 69.0038 396.018 64.7147C391.451 60.4287 386.68 56.1748 382.667 53.0821C380.663 51.5375 378.827 50.266 377.286 49.4249C376.516 49.0046 375.799 48.6798 375.157 48.4853C374.528 48.2951 373.892 48.2047 373.325 48.3461ZM170.529 106.714C169.998 106.338 169.447 105.991 168.878 105.671C168.566 105.574 168.238 105.488 167.896 105.41C168.816 105.782 169.704 106.19 170.529 106.714ZM156.635 101.047C152.502 97.1999 148.451 90.3992 145.235 77.1946C146.456 85.8179 148.419 91.4799 150.725 95.2412C152.487 98.1154 154.457 99.8935 156.481 101.041C156.532 101.043 156.584 101.045 156.635 101.047ZM144.749 75.1179C144.699 74.899 144.65 74.6784 144.601 74.4562C144.373 73.4203 143.819 72.8181 142.944 72.4313C142.01 72.0183 140.705 71.8526 139.018 71.8145C138.835 71.8103 138.648 71.8077 138.459 71.8063C138.913 71.9269 139.347 72.0514 139.759 72.1796C141.241 72.6413 142.477 73.165 143.379 73.7665C143.949 74.1465 144.439 74.5934 144.749 75.1179ZM128.798 71.8309C129.547 71.8699 130.283 71.8909 131.003 71.9C134.342 72.3711 137.166 72.9428 139.313 73.6117C140.734 74.0544 141.816 74.527 142.547 75.0146C143.294 75.5124 143.553 75.941 143.595 76.2604C144.815 85.6332 146.889 91.854 149.446 96.0252C150.777 98.1964 152.235 99.8051 153.758 101.01C153.11 101.021 152.464 101.045 151.82 101.081C145.553 101.428 139.417 102.873 134.841 104.384C134.805 103.562 134.734 102.697 134.633 101.801C134.324 99.042 133.728 95.902 132.988 92.6489C132.873 91.71 132.742 90.7556 132.597 89.7925C131.666 83.6043 130.175 77.0148 128.798 71.8309ZM100.805 70.2819C92.167 70.318 83.2578 70.6931 75.1335 71.4013C66.7658 72.1307 59.2652 73.2106 53.7648 74.626C57.9363 74.3332 62.8168 73.8671 68.1035 73.3331C69.9133 73.1503 71.7694 72.9596 73.659 72.7655C81.8573 71.9235 90.6856 71.0167 99.0949 70.403C99.6669 70.3612 100.237 70.3208 100.805 70.2819ZM48.3574 76.4145C53.5017 76.2587 60.4804 75.6108 68.2543 74.8255C70.0695 74.6421 71.9294 74.4511 73.8214 74.2568C82.0187 73.4148 90.8192 72.511 99.2041 71.899C109.29 71.1629 118.721 70.8537 125.741 71.5717C126.141 73.0184 126.603 74.6304 127.096 76.3543L127.097 76.3546C128.426 80.9982 129.988 86.454 131.224 91.6826C131.321 92.0927 131.416 92.5011 131.509 92.9072C131.786 95.1777 131.965 97.3394 132.011 99.2933C132.076 102.079 131.867 104.375 131.325 105.954C131.218 106.266 131.101 106.541 130.976 106.782C130.244 105.544 129.388 104.655 128.499 104.06C127.479 103.378 126.419 103.089 125.49 103.129C124.581 103.168 123.712 103.536 123.25 104.267C122.757 105.048 122.876 106.001 123.485 106.852C124.078 107.68 125.161 108.475 126.784 109.175C128.182 109.779 129.454 109.87 130.53 109.337C130.968 110.511 131.317 111.95 131.514 113.703C132.054 118.511 131.438 125.601 128.443 135.801C119.32 135.737 106.441 136.176 95.1478 136.698C89.734 136.322 84.4605 136.271 79.5107 137.197C78.7821 128.475 71.5151 123.95 64.4529 123.914C60.7695 123.896 57.0759 125.089 54.3176 127.584C51.9408 129.734 50.3008 132.813 49.9419 136.805C49.6378 136.426 49.3472 135.957 49.0698 135.393C48.1407 133.502 47.472 130.733 47.0048 127.335C46.0724 120.553 45.9753 111.536 46.0023 102.687C46.007 101.147 46.0155 99.6107 46.0239 98.093C46.0634 90.9268 46.1008 84.1676 45.7274 79.2395C45.6966 78.8332 45.6629 78.437 45.6259 78.0519C45.9144 77.7915 46.2806 77.5224 46.7368 77.246C47.205 76.9625 47.7464 76.6852 48.3574 76.4145ZM44.4966 85.5291C44.4026 87.0185 44.2866 88.6719 44.1623 90.444C44.0958 91.3926 44.0268 92.3751 43.9576 93.3847C43.543 99.4333 43.1124 106.51 43.0931 113.25C43.0738 120.004 43.4686 126.36 44.6792 130.99C45.2852 133.307 46.0793 135.126 47.0748 136.344C47.5848 136.968 48.1431 137.431 48.7612 137.727C48.3729 137.24 48.0284 136.675 47.7234 136.054C46.6865 133.943 45.9922 130.983 45.5188 127.539C44.5698 120.637 44.4754 111.516 44.5023 102.683C44.5071 101.128 44.5156 99.5826 44.5239 98.0592L44.5239 98.059C44.5485 93.5845 44.572 89.2999 44.4966 85.5291ZM51.3993 139.489C51.8945 146.779 58.3573 150.7 64.9733 150.733C68.3571 150.75 71.68 149.734 74.1215 147.69C74.3582 147.492 74.5871 147.284 74.8074 147.065C74.6897 147.17 74.5699 147.273 74.448 147.374C71.9506 149.433 68.6213 150.516 65.3042 150.619C61.9874 150.722 58.613 149.846 56.0302 147.899C53.5749 146.048 51.8726 143.254 51.6201 139.53C51.5457 139.519 51.4721 139.505 51.3993 139.489ZM75.4085 130.473C72.8058 127.155 68.6338 125.435 64.4455 125.414C61.0766 125.398 57.763 126.49 55.3239 128.697C53.0652 130.74 51.5068 133.781 51.3767 137.92C51.4492 137.947 51.5223 137.971 51.596 137.991C51.7263 134.078 53.2951 131.126 55.658 129.141C58.1698 127.031 61.5197 126.061 64.8458 126.111C68.7402 126.169 72.7446 127.647 75.4085 130.473ZM106.534 137.729C114.228 138.445 121.998 138.937 129.529 137.561C129.562 137.479 129.595 137.396 129.627 137.313C129.419 137.31 129.208 137.308 128.994 137.306C122.783 137.246 114.698 137.435 106.534 137.729ZM131.686 135.85C132.81 131.84 133.177 126.883 133.375 122.342C133.429 121.109 133.47 119.912 133.509 118.767L133.509 118.766L133.509 118.766C133.56 117.263 133.609 115.849 133.679 114.556C133.791 112.491 133.955 110.868 134.24 109.827C138.79 108.04 145.652 105.85 152.668 105.25C159.815 104.638 166.977 105.688 172.067 110.317C173.05 112.777 173.806 115.038 174.366 117.111C175.568 124.02 174.997 128.375 173.69 131.003C172.796 132.803 171.554 133.805 170.258 134.301C169.124 134.735 167.914 134.796 166.808 134.618C166.257 130.165 164.281 126.882 161.566 124.761C158.75 122.562 155.188 121.651 151.718 121.921C147.022 122.287 142.436 124.829 140.01 129.334C138.94 131.233 138.29 133.548 138.216 136.261C136.655 136.046 134.404 135.916 131.686 135.85ZM131.216 137.34C131.203 137.378 131.189 137.416 131.175 137.454C131.572 137.436 131.951 137.406 132.314 137.368C131.958 137.357 131.592 137.348 131.216 137.34ZM163.691 142.831C163.103 143.897 162.383 144.814 161.57 145.59C159.226 147.826 156.043 148.944 152.807 148.986C146.309 149.071 139.886 144.864 139.736 137.134C139.682 134.319 140.304 131.916 141.389 129.944C141.898 129.068 142.505 128.304 143.184 127.648C145.328 125.578 148.252 124.54 151.263 124.568C157.262 124.623 163.548 128.908 164.385 137.586C164.422 139.6 164.167 141.341 163.691 142.831ZM165.15 133.714C163.412 128.019 159.166 124.592 154.538 123.473C156.748 123.741 158.87 124.559 160.643 125.944C162.804 127.632 164.482 130.191 165.15 133.714ZM166.826 137.084C166.848 136.775 166.863 136.461 166.871 136.142C168.116 136.3 169.482 136.205 170.794 135.702C171.853 135.296 172.858 134.632 173.72 133.651C171.977 136.265 169.322 137.277 166.826 137.084ZM130.134 135.82C130.09 135.819 130.045 135.818 130 135.818C130.33 134.682 130.63 133.583 130.903 132.519C130.694 133.682 130.441 134.791 130.134 135.82ZM132.523 110.751C132.627 110.082 132.756 109.497 132.92 109.019C133.151 108.345 133.289 107.497 133.341 106.498C133.095 106.59 132.855 106.681 132.623 106.772C132.394 107.359 132.107 107.892 131.748 108.338C132.046 109.056 132.307 109.859 132.523 110.751ZM133.357 104.896C133.282 104.923 133.206 104.95 133.132 104.977C133.202 104.628 133.262 104.263 133.312 103.884C133.333 104.232 133.349 104.569 133.357 104.896ZM134.861 105.959C134.846 106.707 134.791 107.407 134.69 108.047C139.288 106.312 145.826 104.329 152.54 103.755C154.607 103.578 156.703 103.534 158.77 103.675C158.559 103.606 158.348 103.533 158.138 103.455C157.445 103.198 156.754 102.893 156.069 102.526C154.691 102.48 153.297 102.501 151.903 102.579C145.579 102.929 139.372 104.43 134.861 105.959ZM337.831 75.8281C334.239 79.104 330.719 82.3134 327.286 85.2206C328.84 84.2975 330.034 83.3689 330.889 82.1438L330.939 82.071L331.006 82.0121L331.504 82.5727C331.006 82.0121 331.006 82.012 331.006 82.0118L331.007 82.0106L331.012 82.0062L331.032 81.9887L331.11 81.9198L331.412 81.6514C331.678 81.4163 332.068 81.0714 332.567 80.6321C333.564 79.7533 334.995 78.4965 336.73 76.9837C340.201 73.9584 344.893 69.9082 349.773 65.8105C353.61 62.5886 357.568 59.3339 361.143 56.5236C354.792 60.7857 348.616 66.0837 342.633 71.4688C341.02 72.9204 339.42 74.3793 337.834 75.8253L337.832 75.8267L337.831 75.8281ZM337.716 78.1145C336.168 79.4632 334.864 80.6081 333.893 81.4623C342.643 80.2249 355.803 78.875 369.67 78.454C383.875 78.0227 398.881 78.5636 410.656 81.2265C410.005 80.5582 409.196 79.7321 408.26 78.784C405.239 76.1401 402.219 73.4112 399.252 70.7247L398.559 70.0976C393.862 65.8443 389.304 61.7164 385.073 58.1952C380.756 54.6018 376.82 51.6739 373.461 49.8956C373.218 49.9904 372.975 50.0875 372.732 50.1867C372.125 50.4882 371.34 50.95 370.39 51.5711C368.853 52.5753 366.97 53.9361 364.867 55.5367C360.662 58.7366 355.61 62.8682 350.738 66.9593C345.867 71.0491 341.183 75.0928 337.716 78.1145ZM331.381 90.403C331.355 89.3559 331.312 88.4062 331.261 87.5598C330.038 93.6889 329.009 100.169 330.351 107.429C331.324 100.428 331.488 94.6244 331.381 90.403ZM332.881 90.3653C333.007 95.3943 332.757 102.606 331.256 111.378C331.62 133.896 332.636 145.441 333.162 148.937C336.001 149.492 339.524 150.082 343.551 150.636C343.841 150.655 344.138 150.673 344.444 150.69C343.038 146.262 341.702 139.354 341.566 133.179C341.493 129.836 341.768 126.645 342.614 124.16C343.46 121.677 344.94 119.738 347.361 119.264C350.363 118.676 353.561 118.147 356.561 118.26C359.57 118.373 362.45 119.133 364.749 121.188C367.049 123.242 368.664 126.498 369.336 131.391C369.984 136.116 369.761 142.425 368.383 150.788C378.595 150.938 388.648 150.891 396.847 150.595C401.064 150.442 404.783 150.223 407.778 149.932C409.971 149.719 411.743 149.47 413.03 149.189C413.308 149.117 413.584 149.044 413.859 148.97C414.573 145.067 414.922 136.43 415.007 126.426C415.037 122.968 415.035 119.358 415.007 115.74C414.893 115.442 414.904 115.148 414.983 114.877C414.858 112.099 414.238 104.689 413.616 97.638C413.275 93.7643 412.935 90.0154 412.68 87.2347C412.553 85.8444 412.447 84.6963 412.373 83.8958L412.317 83.2897L383.418 81.8602C384.917 83.5239 385.681 85.0739 385.924 86.5675C386.234 88.468 385.676 90.1395 385 91.6244C384.786 92.0934 384.547 92.5707 384.318 93.0297C384.191 93.2828 384.067 93.5304 383.952 93.7679C383.616 94.4593 383.328 95.1136 383.139 95.7631C382.815 96.8751 382.779 97.9741 383.374 99.1884C387.125 98.1443 389.626 97.5343 394.009 97.8187C394.459 97.7937 394.936 97.7579 395.426 97.7212C396.354 97.6516 397.326 97.5787 398.24 97.5696C399.673 97.5554 401.14 97.6884 402.389 98.2811C402.984 98.5632 403.517 98.9432 403.969 99.4392C404.925 100.258 405.434 101.406 405.613 102.89C405.792 104.38 405.646 106.268 405.255 108.635C405.252 109.167 405.221 109.675 405.162 110.158C405.15 110.497 405.142 110.846 405.133 111.2L405.129 111.398L405.129 111.401C405.109 112.241 405.089 113.11 405.029 113.926C404.966 114.803 404.854 115.663 404.632 116.397C404.414 117.121 404.057 117.826 403.429 118.265C402.803 118.704 402.022 118.945 401.201 119.084C400.375 119.223 399.45 119.269 398.495 119.276C397.716 119.282 396.932 119.264 396.146 119.246L396.146 119.246C395.244 119.225 394.339 119.205 393.438 119.22C393.136 119.237 392.861 119.245 392.618 119.249C391.152 119.703 389.374 120.006 387.601 120.004C385.792 120.001 383.927 119.679 382.405 118.813C380.853 117.931 379.689 116.498 379.323 114.384C378.965 112.321 379.378 109.679 380.786 106.341C380.996 105.368 381.019 104.415 381.042 103.484C381.052 103.106 381.061 102.732 381.082 102.362C381.118 101.753 381.191 101.119 381.42 100.587C381.552 100.278 381.74 99.9998 381.993 99.7783C381.243 98.2015 381.295 96.731 381.699 95.3439C381.924 94.5707 382.257 93.8254 382.603 93.1128C382.735 92.8398 382.867 92.577 382.996 92.3181C383.216 91.8792 383.43 91.4513 383.635 91.0027C384.271 89.6061 384.681 88.2675 384.444 86.8087C384.215 85.402 383.36 83.7546 381.222 81.7737L332.37 83.2961C332.413 83.6181 332.463 84.0289 332.516 84.5244C332.659 85.871 332.817 87.8441 332.881 90.3653ZM329.961 120.812C330.359 135.223 331.026 143.821 331.497 147.788C331.249 147.459 331.016 147.065 330.801 146.605C330.242 145.411 329.834 143.845 329.558 142.007C329.007 138.332 329.003 133.72 329.253 129.174C329.413 126.252 329.677 123.373 329.961 120.812ZM246.895 116.02C272.809 116.479 299.754 115.523 319.267 112.633C303.131 113.327 278.741 114.009 253.885 114.122C232.613 114.219 210.963 113.9 193.849 112.811C208.469 114.525 227.357 115.674 246.895 116.02ZM369.121 152.858C365.577 152.728 362.115 152.523 358.79 152.265C361.669 152.239 364.311 152.22 365.992 152.25C366.49 152.259 366.989 152.267 367.487 152.275C377.694 152.435 387.801 152.402 396.125 152.121C387.196 153.045 377.916 153.182 369.121 152.858ZM355.48 150.796C351.776 150.829 348.179 150.848 346.104 150.775C345.162 146.663 344.241 139.608 344.235 133.482C344.232 130.272 344.48 127.379 345.078 125.312C345.377 124.276 345.748 123.507 346.171 123.01C346.576 122.533 347.009 122.322 347.505 122.322C349.28 122.322 350.956 122.227 352.508 122.133L352.827 122.114L352.827 122.114C354.263 122.026 355.579 121.946 356.794 121.946C359.415 121.945 361.375 122.319 362.815 123.619C364.264 124.928 365.344 127.317 365.814 131.745C366.27 136.045 366.139 142.136 365.324 150.741C363.344 150.722 360.451 150.75 357.447 150.778L357.445 150.778C356.793 150.784 356.135 150.79 355.48 150.796ZM366.829 150.764L366.867 150.765C368.264 142.368 368.476 136.155 367.85 131.595C367.209 126.925 365.7 124.049 363.75 122.306C361.8 120.564 359.306 119.864 356.505 119.759C353.693 119.653 350.644 120.149 347.649 120.736C347.519 120.761 347.392 120.793 347.268 120.831C347.346 120.825 347.425 120.822 347.505 120.822C349.23 120.822 350.866 120.73 352.418 120.636L352.748 120.616C354.171 120.529 355.531 120.446 356.794 120.446C359.501 120.445 361.948 120.816 363.82 122.506C365.683 124.188 366.822 127.035 367.305 131.587C367.776 136.016 367.637 142.19 366.829 150.764ZM416.496 127.634C416.402 136.337 416.102 144.019 415.496 148.238C416.163 147.748 416.651 147.06 417 146.139C417.555 144.677 417.755 142.631 417.677 139.883C417.586 136.659 417.12 132.61 416.496 127.634ZM416.811 112.895C416.697 112.972 416.588 113.05 416.482 113.128C416.451 110.31 416.404 107.507 416.344 104.788C416.481 104.994 416.626 105.191 416.779 105.379C418.59 107.598 421.405 108.336 425.005 108.152C425.705 108.116 426.441 108.046 427.213 107.943C425.578 108.589 424.091 109.207 422.763 109.793C420.149 110.948 418.121 111.993 416.811 112.895ZM509.481 84.4508C505.545 85.3243 501.636 86.2239 497.774 87.142C501.536 86.2184 505.437 85.3169 509.481 84.4508ZM381.54 80.2655L402.693 81.3118C392.582 79.8845 380.936 79.6126 369.715 79.9533C362.179 80.1821 354.852 80.6867 348.336 81.2978L381.48 80.265L381.51 80.2641L381.54 80.2655ZM395.376 107.701C395.469 104.272 395.131 101.248 394.867 99.3084C396.852 99.2876 398.473 99.3176 399.786 99.4768C401.278 99.6575 402.269 99.9945 402.923 100.52C403.273 100.925 403.56 101.446 403.764 102.121C404.15 103.398 404.245 105.242 403.853 107.886C401.448 108.106 398.451 107.983 395.376 107.701ZM395.308 109.201C398.281 109.472 401.235 109.6 403.694 109.405C403.682 109.615 403.673 109.827 403.665 110.04C403.484 111.471 403.037 112.617 402.434 113.539C401.636 114.762 400.534 115.637 399.315 116.263C397.379 117.257 395.194 117.599 393.619 117.706C394.648 114.899 395.131 111.956 395.308 109.201ZM400 117.597C401.284 116.938 402.503 116.012 403.446 114.715C403.386 115.184 403.305 115.603 403.196 115.963C403.019 116.55 402.797 116.877 402.569 117.037C402.2 117.294 401.666 117.484 400.951 117.605C400.573 117.669 400.161 117.711 399.718 117.738C399.812 117.692 399.907 117.645 400 117.597ZM393.815 109.054C393.637 111.895 393.122 114.928 391.988 117.77C389.185 117.86 386.329 117.548 384.365 116.724C383.329 116.289 382.625 115.746 382.262 115.13C381.92 114.548 381.819 113.795 382.206 112.763L382.216 112.736L382.224 112.708C382.536 111.625 382.43 110.373 382.324 109.327C382.312 109.218 382.301 109.112 382.29 109.007C382.246 108.584 382.206 108.194 382.186 107.827C382.178 107.684 382.174 107.551 382.174 107.427C382.686 107.505 383.26 107.594 383.883 107.691C386.157 108.044 389.097 108.502 392.147 108.866C392.699 108.932 393.256 108.995 393.815 109.054ZM380.747 112.386C380.735 112.422 380.722 112.459 380.711 112.495C380.735 111.974 380.805 111.408 380.927 110.793C380.942 111.338 380.91 111.835 380.79 112.267C380.775 112.307 380.761 112.346 380.747 112.386ZM384.153 106.214C383.508 106.114 382.913 106.022 382.379 105.941C382.507 105.043 382.529 104.148 382.547 103.383C382.556 103.042 382.564 102.727 382.58 102.449C382.614 101.863 382.68 101.454 382.798 101.179C382.897 100.949 383.013 100.846 383.207 100.792C387.07 99.712 389.365 99.0904 393.349 99.2835C393.612 101.179 393.961 104.17 393.88 107.552C393.36 107.497 392.841 107.438 392.325 107.376C389.301 107.015 386.419 106.567 384.153 106.214ZM43.0857 73.0308C43.3027 73.4965 43.4918 74.116 43.655 74.878C42.9719 74.8328 42.3787 74.7662 41.8791 74.6772C41.0477 74.5291 40.5848 74.3364 40.3779 74.1687C40.3335 74.1327 40.3109 74.1055 40.3003 74.0901C40.2905 74.076 40.2894 74.0699 40.2894 74.0699C40.2894 74.0699 40.2871 74.0624 40.2895 74.042C40.2919 74.0201 40.3001 73.9805 40.325 73.921C40.439 73.6487 40.7927 73.2047 41.5776 72.5811C42.0875 72.1761 42.3402 72.1953 42.4349 72.224C42.563 72.2628 42.8074 72.4335 43.0857 73.0308ZM599.829 74.0834C595.319 74.0357 590.9 74.0569 586.573 74.141C588.278 74.0513 589.954 73.9818 591.596 73.9335C594.562 73.8463 597.416 73.8286 600.143 73.8858C600.038 73.9507 599.933 74.0166 599.829 74.0834ZM602.836 74.1252C602.938 74.0765 603.041 74.0285 603.144 73.9815C603.774 74.0088 604.396 74.0404 605.01 74.0766C604.936 74.1051 604.862 74.134 604.788 74.1631C604.136 74.1491 603.485 74.1364 602.836 74.1252ZM605.204 75.612C606.456 75.1082 607.781 74.702 609.144 74.4006C612.625 74.7465 615.8 75.2622 618.624 75.9641C623.349 77.139 627.003 78.8137 629.463 81.0196C630.199 81.8742 630.913 82.7958 631.6 83.7865C631.845 84.4997 632.042 85.2544 632.187 86.0515L632.602 88.3371L633.601 86.2403C634.413 84.539 635.399 83.0255 636.526 81.6935C638.517 79.7646 640.533 78.154 642.55 76.8361C645.607 75.1937 649.037 74.2908 652.527 74.0709C660.294 73.5818 668.239 76.4843 672.876 82.0148C677.466 87.4883 678.928 95.6762 673.494 106.07C668.068 116.447 655.778 128.976 632.95 142.951C627.498 139.146 619.501 132.555 612.096 124.679C604.498 116.597 597.588 107.231 594.639 98.1876C593.154 93.633 593.992 88.7131 596.137 84.5397C598.285 80.3577 601.695 77.0248 605.204 75.612ZM618.986 74.5085C620.763 74.9505 622.422 75.4685 623.945 76.0693C623.228 75.5859 622.5 75.15 621.766 74.7602L621.73 74.7491C619.781 74.1475 617.691 73.8315 615.574 73.7773C616.759 73.9943 617.897 74.2377 618.986 74.5085ZM609.057 72.8848C610.622 72.553 612.234 72.351 613.85 72.2892C613.056 72.2017 612.266 72.1605 611.483 72.1639C609.923 72.1705 608.389 72.3534 606.906 72.7002C607.634 72.755 608.351 72.8165 609.057 72.8848ZM674.026 81.051C669.042 75.1074 660.631 72.0775 652.501 72.5697C655.376 71.9573 658.157 71.8906 660.763 72.2869C668.984 73.5369 675.605 79.4083 678.083 87.6322C678.977 90.6019 678.95 93.5197 678.244 96.704C679.156 90.385 677.404 85.0804 674.026 81.051ZM643.233 138.094C658.495 127.661 667.975 118.064 673.208 109.594C668.252 118.961 659.241 129.377 643.233 138.094ZM595.689 108.403C599.871 116.297 607.41 125.016 619.491 134.018C616.688 131.482 613.804 128.685 611.004 125.707C603.353 117.569 596.264 108.009 593.213 98.6527C591.574 93.6288 592.523 88.2909 594.803 83.8541C596.557 80.4404 599.129 77.5013 602.009 75.6119C601.428 75.6029 600.848 75.5951 600.271 75.5884C597.723 77.3043 595.565 79.6195 594.02 82.4293C590.508 88.8128 590.103 97.8601 595.689 108.403ZM678.847 101.943C678.571 102.089 678.306 102.241 678.053 102.4C679.684 98.0904 680.574 94.2371 680.166 90.3909C680.484 90.6968 680.83 91.0026 681.202 91.3081C682.652 92.5011 684.532 93.7236 686.805 94.9615C688.966 96.1383 691.495 97.3365 694.37 98.5419C691.683 98.7544 689.236 99.0491 687.054 99.435C683.694 100.029 680.916 100.847 678.847 101.943ZM705.597 101.118C704.162 100.639 702.779 100.16 701.45 99.6802C705.283 99.5742 709.478 99.586 713.986 99.6995C735.939 100.252 765.162 103.209 795.977 106.59C801.566 107.203 807.207 107.83 812.866 108.458C838.394 111.296 864.284 114.173 887.391 115.998C901.916 117.146 915.371 117.88 926.961 117.923C866.507 124.301 810.218 121.37 766.571 114.833C741.544 111.085 720.689 106.153 705.597 101.118ZM53.0901 138.815C53.0142 134.902 54.4586 132.107 56.6229 130.289C58.8069 128.454 61.7843 127.565 64.8233 127.611C70.945 127.703 76.9014 131.521 77.0339 138.35C77.1008 141.797 75.6756 144.417 73.4938 146.216C71.2938 148.03 68.3002 149.025 65.2578 149.12C62.2151 149.214 59.1936 148.405 56.9331 146.701C54.6937 145.013 53.16 142.418 53.0901 138.815ZM127.665 105.307C128.428 105.817 129.232 106.663 129.919 107.964C129.906 107.971 129.893 107.978 129.88 107.985C129.335 108.262 128.549 108.304 127.378 107.798C125.879 107.151 125.074 106.495 124.705 105.979C124.351 105.485 124.433 105.203 124.518 105.068C124.636 104.882 124.962 104.653 125.555 104.628C126.128 104.603 126.877 104.78 127.665 105.307Z" fill="#151515"/>
</g>
</svg>
