<svg width="1156" height="679" viewBox="0 0 1156 679" fill="none" xmlns="http://www.w3.org/2000/svg">
<path d="M-138.999 -134C-119.354 -84.1179 -48.1435 9.07141 44.6388 56.8107C137.421 104.55 221.278 83.3973 234.26 76.7119C272.807 83.79 364.765 84.1945 428.497 65.2702C436.821 61.6976 414.055 85.937 449.227 103.715C484.399 121.493 566.863 91.0517 651.779 133.553C658.825 134.591 655.73 114.724 669.839 112.603C683.948 110.483 763.609 103.455 712.724 188.12C701.023 207.588 735.979 242.149 797.989 456.432C803.04 476.371 787.357 471.445 788.999 537.671C790.64 603.896 732.061 622.859 708.681 614.617M708.681 614.617C685.302 606.374 731.261 575.354 658.606 531.059M708.681 614.617C708.681 614.617 777 628.5 807.5 652.5C838 676.5 877 858.5 921.641 887C966.282 915.5 1026 933 1026 933C782.5 887 946 652 700.357 618.189M658.606 531.059C651.906 527.673 603.784 439.004 613.274 399.013C622.764 359.021 611.741 384.99 590.733 352.503C585.139 345.681 595.736 302.253 592.792 265.228C589.848 228.204 499.108 135.657 442.453 194.494C432.849 202.677 388.055 185.071 382.744 151.897C377.434 118.723 257.542 122.266 252.672 122.748C247.802 123.23 212.481 82.0363 235.797 66.2759C243.794 60.8556 286.643 107.957 431.76 67.5504C444.44 64.0197 398.08 92.5815 467.619 101.026C537.157 109.47 562.012 87.3378 650.141 124.314C653.286 115.18 669.732 84.6108 690.848 104.517C718.813 130.88 727.766 134.55 719.369 154.907C710.971 175.265 702.239 178.939 710.734 201.623C721.434 230.192 787.141 367.04 802.058 449.017C808.564 484.767 786.951 506.777 789.29 547.911C791.628 589.045 749.378 635.608 700.357 618.189M658.606 531.059C738.398 555.41 691.723 615.718 700.357 618.189M658.606 531.059C644.206 522.939 598.718 465.251 606.884 401.67C609.392 384.644 621.672 378.655 596.276 351.52C584.416 338.376 603.378 262.589 595.646 245.854C587.914 229.119 522.598 138.349 443.441 199.27C437.379 203.776 407.066 206.677 386.237 152.621C365.407 98.5656 290.711 137.349 247.456 125.579C233.038 121.655 220.2 82.5736 227.232 67.4135C210.274 68.5145 -60.7332 124.667 -128.468 -124.051" stroke="#151515" stroke-opacity="0.15" stroke-width="1.5"/>
<path d="M751.634 348.351C745.327 344.955 734.722 333.316 738.603 319.732C743.454 302.752 771.039 307.123 768.128 327.013C765.8 339.821 752.187 346.895 747.336 348.351C739.412 342.529 727.542 327.393 739.574 313.421C754.613 295.956 781.713 322.157 751.634 348.351Z" stroke="#151515" stroke-width="1.5"/>
<path d="M754.005 327.007C754.745 326.242 755.249 325.208 755.249 324.098C755.249 322.78 755.069 321.929 754.62 321.391C754.198 320.885 753.381 320.482 751.633 320.482L754.005 327.007ZM754.005 327.007C753.253 327.785 752.344 328.199 751.633 328.199M754.005 327.007L751.633 328.199M751.633 328.199C748.716 328.199 747.046 325.946 747.046 323.613M751.633 328.199L747.046 323.613M747.046 323.613C747.046 322.567 747.546 321.82 748.362 321.3M747.046 323.613L748.362 321.3M748.362 321.3C749.208 320.763 750.39 320.482 751.633 320.482L748.362 321.3Z" stroke="#151515" stroke-width="1.5"/>
<path d="M753.726 328.229C754.634 327.322 755.252 326.1 755.252 324.787C755.252 323.261 755.039 322.243 754.471 321.587C753.924 320.955 752.886 320.482 750.763 320.482L753.726 328.229ZM753.726 328.229C752.807 329.145 751.678 329.655 750.763 329.655M753.726 328.229L750.763 329.655M750.763 329.655C747.142 329.655 745.109 326.956 745.109 324.226M750.763 329.655L745.109 324.226M745.109 324.226C745.109 322.981 745.728 322.08 746.747 321.455M745.109 324.226L746.747 321.455M746.747 321.455C747.794 320.812 749.248 320.482 750.763 320.482L746.747 321.455Z" stroke="#151515" stroke-width="1.5"/>
<path d="M784.359 466.879C779.635 464.335 771.691 455.618 774.598 445.443C778.232 432.725 798.894 435.998 796.714 450.897C794.969 460.49 784.773 465.789 781.139 466.879C775.204 462.518 766.314 451.181 775.325 440.716C786.59 427.634 806.888 447.26 784.359 466.879Z" stroke="#151515" stroke-width="1.5"/>
<path d="M786.001 450.761C786.528 450.216 786.88 449.487 786.88 448.713C786.88 447.732 786.744 447.154 786.453 446.806C786.189 446.49 785.646 446.193 784.36 446.193L786.001 450.761ZM786.001 450.761C785.462 451.319 784.828 451.597 784.36 451.597M786.001 450.761L784.36 451.597M784.36 451.597C782.295 451.597 781.113 450.01 781.113 448.35M784.36 451.597L781.113 448.35M781.113 448.35C781.113 447.641 781.445 447.136 782.011 446.777M781.113 448.35L782.011 446.777M782.011 446.777C782.606 446.399 783.453 446.193 784.36 446.193L782.011 446.777Z" stroke="#151515" stroke-width="1.5"/>
<path d="M785.789 451.674C786.441 451.023 786.877 450.153 786.877 449.23C786.877 448.093 786.715 447.392 786.338 446.956C785.981 446.543 785.272 446.193 783.702 446.193L785.789 451.674ZM785.789 451.674C785.126 452.335 784.325 452.687 783.702 452.687M785.789 451.674L783.702 452.687M783.702 452.687C781.105 452.687 779.656 450.76 779.656 448.809M783.702 452.687L779.656 448.809M779.656 448.809C779.656 447.954 780.075 447.334 780.793 446.894M779.656 448.809L780.793 446.894M780.793 446.894C781.539 446.436 782.591 446.193 783.702 446.193L780.793 446.894Z" stroke="#151515" stroke-width="1.5"/>
<path d="M749.852 501.698C755.213 498.005 763.64 486.441 758.788 474.555C752.724 459.697 728.239 466.378 732.839 484.057C736.211 495.396 749.208 500.438 753.735 501.272C760.316 495.228 769.539 480.379 757.286 468.95C741.971 454.663 720.087 481.017 749.852 501.698Z" stroke="#151515" stroke-width="1.5"/>
<path d="M745.637 482.6C744.904 481.991 744.357 481.123 744.249 480.141C744.119 478.952 744.2 478.187 744.538 477.678C744.853 477.204 745.526 476.764 747.097 476.591L745.637 482.6ZM745.637 482.6C746.383 483.22 747.227 483.495 747.846 483.427M745.637 482.6L747.846 483.427M747.846 483.427C750.438 483.143 751.702 480.981 751.474 478.905M747.846 483.427L751.474 478.905M751.474 478.905C751.374 477.987 750.866 477.38 750.094 477M751.474 478.905L750.094 477M750.094 477C749.293 476.606 748.211 476.469 747.097 476.591L750.094 477Z" stroke="#151515" stroke-width="1.5"/>
<path d="M746.016 483.674C745.117 482.955 744.45 481.927 744.322 480.763C744.171 479.387 744.266 478.468 744.699 477.841C745.113 477.24 745.98 476.714 747.89 476.504L746.016 483.674ZM746.016 483.674C746.927 484.404 747.98 484.743 748.784 484.655M746.016 483.674L748.784 484.655M748.784 484.655C752.013 484.3 753.56 481.698 753.293 479.266M748.784 484.655L753.293 479.266M753.293 479.266C753.173 478.17 752.542 477.435 751.577 476.979M753.293 479.266L751.577 476.979M751.577 476.979C750.582 476.51 749.251 476.355 747.89 476.504L751.577 476.979Z" stroke="#151515" stroke-width="1.5"/>
<path d="M785.251 562.163C780.499 558.889 773.028 548.638 777.329 538.101C782.705 524.93 804.411 530.853 800.333 546.525C797.343 556.576 785.821 561.046 781.809 561.785C775.975 556.428 767.799 543.264 778.661 533.133C792.238 520.468 811.637 543.829 785.251 562.163Z" stroke="#151515" stroke-width="1.5"/>
<path d="M788.932 545.168C789.568 544.639 790.04 543.889 790.132 543.044C790.248 541.993 790.172 541.341 789.89 540.917C789.631 540.528 789.065 540.143 787.683 539.991L788.932 545.168ZM788.932 545.168C788.283 545.707 787.557 545.938 787.037 545.881M788.932 545.168L787.037 545.881M787.037 545.881C784.794 545.635 783.699 543.768 783.896 541.967M787.037 545.881L783.896 541.967M783.896 541.967C783.982 541.186 784.411 540.671 785.073 540.345M783.896 541.967L785.073 540.345M785.073 540.345C785.765 540.005 786.707 539.884 787.683 539.991L785.073 540.345Z" stroke="#151515" stroke-width="1.5"/>
<path d="M788.601 546.119C789.384 545.492 789.961 544.601 790.071 543.596C790.205 542.379 790.117 541.592 789.752 541.063C789.405 540.56 788.667 540.099 786.983 539.914L788.601 546.119ZM788.601 546.119C787.806 546.756 786.894 547.045 786.209 546.97M788.601 546.119L786.209 546.97M786.209 546.97C783.398 546.662 782.056 544.401 782.288 542.287M786.209 546.97L782.288 542.287M782.288 542.287C782.391 541.35 782.927 540.721 783.761 540.328M782.288 542.287L783.761 540.328M783.761 540.328C784.624 539.92 785.788 539.783 786.983 539.914L783.761 540.328Z" stroke="#151515" stroke-width="1.5"/>
<path d="M768.929 415.949C763.072 412.553 753.222 400.914 756.826 387.33C761.332 370.35 786.953 374.721 784.249 394.611C782.086 407.419 769.443 414.493 764.937 415.949C757.578 410.127 746.553 394.991 757.728 381.019C771.696 363.554 796.866 389.755 768.929 415.949Z" stroke="#151515" stroke-width="1.5"/>
<path d="M771.078 394.625C771.762 393.864 772.238 392.825 772.238 391.696C772.238 390.372 772.069 389.51 771.649 388.968C771.266 388.474 770.534 388.08 768.933 388.08L771.078 394.625ZM771.078 394.625C770.38 395.403 769.553 395.797 768.933 395.797M771.078 394.625L768.933 395.797M768.933 395.797C766.306 395.797 764.726 393.599 764.726 391.211M768.933 395.797L764.726 391.211M764.726 391.211C764.726 390.14 765.203 389.392 765.945 388.884M764.726 391.211L765.945 388.884M765.945 388.884C766.715 388.357 767.795 388.08 768.933 388.08L765.945 388.884Z" stroke="#151515" stroke-width="1.5"/>
<path d="M770.814 395.847C771.654 394.945 772.235 393.717 772.235 392.386C772.235 390.853 772.035 389.824 771.506 389.164C771.008 388.545 770.07 388.08 768.119 388.08L770.814 395.847ZM770.814 395.847C769.962 396.763 768.931 397.253 768.119 397.253M770.814 395.847L768.119 397.253M768.119 397.253C764.838 397.253 762.921 394.608 762.921 391.824M768.119 397.253L762.921 391.824M762.921 391.824C762.921 390.553 763.51 389.653 764.439 389.039M762.921 391.824L764.439 389.039M764.439 389.039C765.397 388.406 766.728 388.08 768.119 388.08L764.439 389.039Z" stroke="#151515" stroke-width="1.5"/>
<path d="M744.468 543.395C740.461 541.072 734.339 533.109 736.805 523.816C739.888 512.2 757.415 515.19 755.566 528.798C754.086 537.56 744.82 542.399 741.737 543.395C736.702 539.412 729.16 529.057 736.805 519.499C746.361 507.551 763.58 525.476 744.468 543.395Z" stroke="#151515" stroke-width="1.5"/>
<path d="M745.512 528.012C745.886 527.604 746.138 527.056 746.138 526.474C746.138 525.693 746.032 525.275 745.846 525.04C745.694 524.848 745.355 524.622 744.416 524.622L745.512 528.012ZM745.512 528.012C745.123 528.434 744.692 528.616 744.416 528.616M745.512 528.012L744.416 528.616M744.416 528.616C743.006 528.616 742.144 527.474 742.144 526.185M744.416 528.616L742.144 526.185M742.144 526.185C742.144 525.663 742.373 525.307 742.753 525.053M742.144 526.185L742.753 525.053M742.753 525.053C743.163 524.779 743.76 524.622 744.416 524.622L742.753 525.053Z" stroke="#151515" stroke-width="1.5"/>
<path d="M745.583 529.481C746.123 528.901 746.491 528.117 746.491 527.275C746.491 526.232 746.352 525.602 746.044 525.22C745.769 524.877 745.215 524.566 743.912 524.566L745.583 529.481ZM745.583 529.481C745.029 530.076 744.382 530.368 743.912 530.368M745.583 529.481L743.912 530.368M743.912 530.368C741.827 530.368 740.593 528.695 740.593 526.891M743.912 530.368L740.593 526.891M740.593 526.891C740.593 526.11 740.948 525.565 741.525 525.183M740.593 526.891L741.525 525.183M741.525 525.183C742.131 524.783 742.992 524.566 743.912 524.566L741.525 525.183Z" stroke="#151515" stroke-width="1.5"/>
<path d="M717.12 387.243C723.513 383.537 734.262 370.836 730.328 356.012C725.411 337.482 697.452 342.252 700.403 363.958C702.763 377.934 716.56 385.654 721.477 387.243C729.508 380.89 741.539 364.372 729.344 349.125C714.101 330.066 686.634 358.659 717.12 387.243Z" stroke="#151515" stroke-width="1.5"/>
<path d="M714.73 364.019C713.974 363.177 713.447 362.027 713.447 360.776C713.447 359.33 713.63 358.368 714.103 357.757C714.54 357.194 715.365 356.762 717.122 356.761L714.73 364.019ZM714.73 364.019C715.5 364.876 716.419 365.32 717.122 365.32M714.73 364.019L717.122 365.32M717.122 365.32C720.037 365.32 721.781 362.879 721.781 360.247M717.122 365.32L721.781 360.247M721.781 360.247C721.781 359.054 721.248 358.218 720.421 357.652M721.781 360.247L720.421 357.652M720.421 357.652C719.566 357.066 718.374 356.761 717.122 356.761L720.421 357.652Z" stroke="#151515" stroke-width="1.5"/>
<path d="M715.018 365.352C714.092 364.358 713.448 363.002 713.448 361.529C713.448 359.855 713.666 358.71 714.26 357.97C714.822 357.271 715.871 356.762 718.009 356.761L715.018 365.352ZM715.018 365.352C715.957 366.361 717.099 366.909 718.009 366.909M715.018 365.352L718.009 366.909M718.009 366.909C721.635 366.909 723.75 363.983 723.75 360.916M718.009 366.909L723.75 360.916M723.75 360.916C723.75 359.504 723.093 358.501 722.063 357.82M723.75 360.916L722.063 357.82M722.063 357.82C721.003 357.12 719.537 356.761 718.009 356.761L722.063 357.82Z" stroke="#151515" stroke-width="1.5"/>
<path d="M750.338 599.415C755.378 596.493 763.854 586.478 760.752 574.789C756.875 560.179 732.272 563.026 734.598 580.141C736.459 591.162 745.493 598.97 749.37 600.223C755.703 595.213 765.189 582.189 755.574 570.166C743.555 555.138 726.3 576.876 750.338 599.415Z" stroke="#151515" stroke-width="1.5"/>
<path d="M745.31 580.503C744.736 579.864 744.339 578.994 744.339 578.052C744.339 576.915 744.485 576.205 744.824 575.769C745.125 575.381 745.716 575.045 747.078 575.045L745.31 580.503ZM745.31 580.503C745.899 581.158 746.583 581.477 747.078 581.477M745.31 580.503L747.078 581.477M747.078 581.477C749.265 581.477 750.593 579.649 750.593 577.635M747.078 581.477L750.593 577.635M750.593 577.635C750.593 576.751 750.203 576.139 749.59 575.719M750.593 577.635L749.59 575.719M749.59 575.719C748.949 575.28 748.043 575.045 747.078 575.045L749.59 575.719Z" stroke="#151515" stroke-width="1.5"/>
<path d="M745.537 581.552C744.83 580.793 744.343 579.761 744.343 578.646C744.343 577.329 744.516 576.476 744.948 575.939C745.347 575.442 746.115 575.045 747.78 575.045L745.537 581.552ZM745.537 581.552C746.258 582.327 747.119 582.729 747.78 582.729M745.537 581.552L747.78 582.729M747.78 582.729C750.533 582.729 752.148 580.513 752.148 578.162M747.78 582.729L752.148 578.162M752.148 578.162C752.148 577.108 751.663 576.364 750.889 575.853M752.148 578.162L750.889 575.853M750.889 575.853C750.087 575.323 748.963 575.045 747.78 575.045L750.889 575.853Z" stroke="#151515" stroke-width="1.5"/>
<path d="M718.53 448.359C724.405 445.195 734.284 434.353 730.669 421.699C726.15 405.881 700.453 409.953 703.165 428.482C705.334 440.413 718.015 447.003 722.534 448.359C729.915 442.935 740.973 428.835 729.765 415.82C715.755 399.55 690.51 423.958 718.53 448.359Z" stroke="#151515" stroke-width="1.5"/>
<path d="M716.356 428.44C715.674 427.735 715.211 426.785 715.211 425.766C715.211 424.54 715.379 423.763 715.785 423.277C716.164 422.822 716.906 422.448 718.528 422.448L716.356 428.44ZM716.356 428.44C717.05 429.158 717.884 429.535 718.528 429.535M716.356 428.44L718.528 429.535M718.528 429.535C721.213 429.535 722.75 427.463 722.75 425.314M718.528 429.535L722.75 425.314M722.75 425.314C722.75 424.36 722.296 423.679 721.547 423.203M722.75 425.314L721.547 423.203M721.547 423.203C720.771 422.709 719.68 422.448 718.528 422.448L721.547 423.203Z" stroke="#151515" stroke-width="1.5"/>
<path d="M716.622 429.577C715.784 428.741 715.216 427.615 715.216 426.408C715.216 424.988 715.415 424.056 715.931 423.46C716.426 422.888 717.374 422.448 719.347 422.448L716.622 429.577ZM716.622 429.577C717.471 430.425 718.511 430.891 719.347 430.891M716.622 429.577L719.347 430.891M719.347 430.891C722.688 430.891 724.562 428.402 724.562 425.885M719.347 430.891L724.562 425.885M724.562 425.885C724.562 424.747 723.997 423.922 723.06 423.347M724.562 425.885L723.06 423.347M723.06 423.347C722.095 422.755 720.752 422.448 719.347 422.448L723.06 423.347Z" stroke="#151515" stroke-width="1.5"/>
</svg>
