<svg width="41" height="26" viewBox="0 0 41 26" fill="none" xmlns="http://www.w3.org/2000/svg">
<path fill-rule="evenodd" clip-rule="evenodd" d="M26.2744 0.97499C22.0798 0.502368 15.9257 0.501103 10.8263 0.951262C8.27713 1.1763 5.98442 1.51473 4.32914 1.96597C3.79809 2.11072 3.32879 2.2681 2.936 2.43888C2.60551 2.4481 2.30278 2.4499 2.03112 2.44315L2.02877 2.44309C1.9698 2.11846 1.89582 1.84826 1.8026 1.64564C1.70703 1.43789 1.5759 1.26723 1.38796 1.2096C1.1936 1.15001 0.994981 1.22724 0.805632 1.37958C0.566326 1.57211 0.40031 1.75206 0.329673 1.923C0.29284 2.01213 0.279033 2.10595 0.301966 2.19863C0.324914 2.2914 0.380416 2.36595 0.451497 2.42433C0.587448 2.53595 0.801068 2.60553 1.05622 2.65156C1.2603 2.68838 1.50468 2.71235 1.7839 2.72554C1.80387 2.85973 1.82199 3.00341 1.83836 3.15609C1.67659 3.34438 1.58432 3.5525 1.58872 3.78215C1.60078 4.41125 1.52291 5.53635 1.42623 6.93317C1.40668 7.21568 1.38635 7.50944 1.36585 7.81232C1.24436 9.607 1.11751 11.7159 1.11183 13.7279C1.10616 15.7372 1.22112 17.6617 1.58811 19.0831C1.77148 19.7934 2.02089 20.3908 2.35983 20.8109C2.67249 21.1983 3.06348 21.4364 3.54098 21.4675C3.66528 23.9305 5.80747 25.2029 7.88077 25.2134C8.94064 25.2188 10.002 24.8973 10.7948 24.225C11.564 23.5729 12.0708 22.5979 12.0811 21.2998C13.3377 21.2228 14.9599 21.1337 16.7134 21.0517C17.4666 21.105 18.2342 21.1801 19.0124 21.2569L19.0695 21.2626C21.6554 21.5179 24.3507 21.7841 26.957 21.2812C27.6379 21.2862 28.1637 21.177 28.5809 21.0817C28.5972 21.078 28.6133 21.0744 28.6292 21.0707C28.6469 21.0666 28.6641 21.0627 28.6813 21.0588C28.8494 21.02 28.9946 20.9867 29.1272 20.9659C29.2343 20.949 29.3272 20.9416 29.4105 20.9457C29.5224 23.4078 31.5052 24.8896 33.4485 25.0355C34.4392 25.1098 35.4327 24.8391 36.173 24.1639C36.5901 23.7836 36.9214 23.2797 37.1268 22.6474C37.3553 22.2186 37.518 21.7216 37.596 21.156C38.57 21.2643 39.6341 20.8262 40.2196 19.655C40.7357 18.6225 40.8695 17.0402 40.2721 14.7925C40.1313 13.9776 39.9117 13.0545 39.5988 12.0109L39.5931 11.9916L39.5822 11.9746C39.3013 11.5314 38.9072 11.2908 38.4556 11.1421C37.5552 10.6373 36.5215 10.3604 35.4477 10.2427C34.0826 9.20971 32.6411 7.13446 31.5559 2.14463C31.4626 1.7155 31.2178 1.4456 30.8628 1.28671C30.5193 1.1329 30.0751 1.08393 29.5745 1.07246C29.2427 1.06485 28.8741 1.07386 28.4823 1.08342C28.2825 1.0883 28.0767 1.09333 27.8665 1.09638C27.6644 1.09931 27.4573 1.10046 27.246 1.09802C26.9354 1.05391 26.611 1.01291 26.2744 0.97499ZM26.4725 1.36247C26.7285 1.3779 26.9795 1.38576 27.2241 1.38882C28.2066 1.52904 29.0398 1.6996 29.6749 1.89995C30.0939 2.03219 30.4187 2.175 30.6415 2.32545C30.8674 2.47786 30.9651 2.62162 30.9814 2.74896C31.3381 5.52295 31.9433 7.35606 32.6844 8.58039C33.121 9.30152 33.6036 9.80969 34.1068 10.1736C33.8439 10.174 33.5808 10.1821 33.3191 10.1968C31.4475 10.3018 29.6148 10.7471 28.2708 11.205C28.2623 10.9339 28.2401 10.6447 28.2066 10.3421C28.1162 9.5258 27.9418 8.59525 27.7249 7.62964C27.6912 7.35168 27.6527 7.06898 27.6104 6.78358C27.3324 4.91074 26.8829 2.91288 26.4725 1.36247ZM20.744 0.92898C17.5179 0.859115 13.9852 0.964555 10.8513 1.24121C8.3084 1.46569 6.0351 1.80232 4.40384 2.247C4.2248 2.2958 4.05394 2.3458 3.89168 2.39693C5.25765 2.31883 6.94804 2.1574 8.80714 1.96721C9.3374 1.91296 9.88113 1.8564 10.4346 1.79883C12.8354 1.54911 15.4192 1.28034 17.8806 1.09841C18.8598 1.02603 19.8207 0.967293 20.744 0.92898ZM2.35113 2.73823C2.25636 2.73809 2.16457 2.73712 2.07588 2.73528C2.0841 2.79269 2.09193 2.85145 2.09944 2.91146C2.17665 2.85139 2.26093 2.79366 2.35113 2.73823ZM2.13792 3.25957C2.23181 3.16911 2.35261 3.07759 2.50285 2.98542C2.64643 2.89735 2.81252 2.81155 2.99972 2.72816C4.50335 2.68289 6.55017 2.49063 8.83603 2.25678C9.36727 2.20244 9.91167 2.1458 10.4656 2.08819C12.8661 1.8385 15.4448 1.57027 17.9015 1.38868C20.8802 1.16851 23.6692 1.0766 25.7374 1.29722C25.8575 1.73753 25.9972 2.23177 26.1472 2.76212L26.1474 2.76336C26.5369 4.1411 26.9952 5.7624 27.3578 7.31495C27.3862 7.43709 27.4142 7.55875 27.4414 7.67976C27.5232 8.35749 27.5763 9.00353 27.5899 9.58803C27.6088 10.4169 27.5479 11.1088 27.3851 11.5901C27.3345 11.7391 27.2758 11.8636 27.2094 11.9645C26.9867 11.5454 26.7189 11.2543 26.4434 11.0675C26.1564 10.873 25.8615 10.793 25.6075 10.8042C25.3573 10.8152 25.1304 10.9172 25.0126 11.1059C24.8888 11.3045 24.9136 11.5528 25.0789 11.7867C25.2414 12.0162 25.5443 12.2449 26.0133 12.45C26.4147 12.6254 26.7651 12.6447 27.0548 12.4953C27.077 12.4838 27.0986 12.4715 27.1197 12.4584C27.2655 12.8284 27.381 13.2883 27.4439 13.8546C27.6046 15.3033 27.4184 17.434 26.5258 20.4944C23.8518 20.4729 20.0491 20.6042 16.7182 20.76C15.1036 20.6463 13.5366 20.6327 12.0703 20.9228C11.9008 18.3286 9.79093 16.9791 7.7298 16.9687C6.66707 16.9633 5.60468 17.312 4.81309 18.0371C4.09819 18.692 3.61311 19.6459 3.54364 20.8988C3.40374 20.762 3.27532 20.5726 3.15749 20.3299C2.87998 19.7577 2.68285 18.9268 2.54571 17.9166C2.27184 15.8991 2.24354 13.2197 2.25143 10.5961C2.25281 10.1385 2.2553 9.68252 2.25775 9.23216C2.26933 7.10687 2.28023 5.10627 2.17114 3.64817C2.16114 3.5145 2.1501 3.38483 2.13792 3.25957ZM1.88483 3.67353C1.87827 3.70815 1.8754 3.74249 1.87605 3.7765C1.88839 4.41994 1.80925 5.5627 1.71259 6.95863C1.69309 7.24019 1.67288 7.53209 1.65256 7.83223C1.53111 9.62625 1.40487 11.727 1.39921 13.7288C1.39356 15.7332 1.50903 17.6263 1.86615 19.0095C2.04484 19.7016 2.28092 20.2532 2.58236 20.6267C2.81342 20.9131 3.08105 21.0934 3.39499 21.1557C3.20167 20.9826 3.03792 20.7433 2.89956 20.4581C2.60135 19.8434 2.39932 18.9752 2.26101 17.9563C1.98395 15.9154 1.95616 13.2158 1.96405 10.5952C1.96545 10.1348 1.96794 9.67699 1.97039 9.22546C1.9819 7.10184 1.99267 5.11834 1.88483 3.67353ZM3.82604 21.4091C3.91797 23.6934 5.88903 24.9123 7.88219 24.9224C8.88751 24.9274 9.87908 24.622 10.6103 24.0019C11.316 23.4035 11.7886 22.5046 11.7938 21.2798C11.7887 21.281 11.7836 21.2824 11.7785 21.2835C11.7669 22.3674 11.3039 23.2095 10.6091 23.7898C9.89286 24.3878 8.93489 24.7045 7.97743 24.7345C7.02 24.7646 6.04968 24.5085 5.30965 23.9435C4.59458 23.3975 4.10197 22.5684 4.04453 21.4549C3.96878 21.4469 3.89597 21.4316 3.82604 21.4091ZM11.786 20.9832C11.6472 18.5484 9.6873 17.2696 7.72838 17.2597C6.72591 17.2546 5.73632 17.5838 5.00589 18.253C4.31833 18.8828 3.85062 19.8227 3.82365 21.0963C3.89306 21.1281 3.96489 21.1494 4.03922 21.1607C4.05495 19.975 4.51132 19.0898 5.2038 18.5006C5.92277 17.8889 6.88491 17.6055 7.84439 17.6201C9.70466 17.6483 11.6297 18.8082 11.7705 20.9867C11.7757 20.9855 11.7809 20.9843 11.786 20.9832ZM18.9189 20.9554C18.9594 20.9593 18.9998 20.9634 19.0403 20.9673L19.0776 20.9709C21.6565 21.2257 24.2953 21.4861 26.8419 21.007C26.8708 20.9364 26.8986 20.864 26.925 20.7899C26.8289 20.7886 26.731 20.7874 26.6313 20.7864C24.5241 20.7659 21.6809 20.844 18.9189 20.9554ZM27.2279 20.7953C27.2057 20.8607 27.1827 20.9252 27.1588 20.9882C27.6291 20.9754 28.0173 20.9073 28.3489 20.8355C28.0182 20.8171 27.6422 20.8039 27.2279 20.7953ZM29.4057 20.6421C28.935 20.5689 28.211 20.5262 27.319 20.506C27.6663 19.3123 27.7782 17.8076 27.8378 16.422C27.8535 16.0582 27.8656 15.7037 27.8771 15.3638C27.8922 14.9172 27.9064 14.4957 27.9269 14.1122C27.961 13.4777 28.0115 12.9735 28.1045 12.6561C29.4396 12.1224 31.4743 11.46 33.5569 11.2796C35.6648 11.097 37.7941 11.41 39.3084 12.8142C39.6002 13.5523 39.8247 14.2313 39.991 14.8544C40.346 16.9167 40.1801 18.2281 39.7874 19.0284C39.5172 19.5788 39.1392 19.8896 38.7413 20.0441C38.3754 20.1861 37.9849 20.1985 37.6352 20.132C37.486 18.8011 36.9114 17.8279 36.1221 17.2036C35.3141 16.5644 34.2905 16.2984 33.2908 16.3773C31.938 16.4841 30.6181 17.225 29.9211 18.5397C29.604 19.1109 29.4151 19.8128 29.4057 20.6421ZM32.7367 24.623C32.9785 24.6858 33.2241 24.7268 33.4697 24.7452C34.3903 24.8143 35.2954 24.564 35.9655 23.9615C35.2737 24.4454 34.4415 24.6841 33.6088 24.6952C33.3172 24.699 33.0245 24.6748 32.7367 24.623ZM36.8618 22.5315C36.6852 22.8573 36.4685 23.1381 36.2225 23.3757C35.5201 24.0545 34.5687 24.3913 33.605 24.4041C31.6722 24.4297 29.7452 23.1598 29.7004 20.8138C29.6841 19.9709 29.8669 19.25 30.1861 18.6568C30.3401 18.3848 30.5252 18.1472 30.7333 17.9437C31.3774 17.3141 32.2533 17.0001 33.1528 17.0086C34.9471 17.0254 36.8227 18.3252 37.0706 20.942C37.0817 21.5507 37.0055 22.0789 36.8618 22.5315ZM37.3448 20.8004C37.0388 18.1035 35.063 16.7354 33.1555 16.7175C33.0651 16.7167 32.9748 16.7189 32.885 16.7241C33.0268 16.6977 33.1697 16.6788 33.3132 16.6675C34.2495 16.5936 35.2 16.8435 35.9452 17.4329C36.6873 18.0199 37.2354 18.951 37.3597 20.2608C37.363 20.4474 37.358 20.6273 37.3448 20.8004ZM37.628 20.8669C38.493 20.9632 39.4371 20.5759 39.9631 19.5237C40.1138 19.2222 40.2311 18.8642 40.3022 18.4449C40.2338 18.713 40.1468 18.9497 40.0447 19.1579C39.7437 19.7714 39.3116 20.1345 38.8442 20.3159C38.4437 20.4711 38.0242 20.4909 37.6479 20.4296C37.6464 20.5794 37.6397 20.7251 37.628 20.8669ZM39.4389 12.4886C39.4057 12.3719 39.371 12.2535 39.3352 12.1334C39.0312 11.8524 38.6976 11.6128 38.3405 11.4104C38.1382 11.3459 37.9167 11.2985 37.6776 11.2581C37.5456 11.2358 37.408 11.2157 37.2661 11.1957C37.3402 11.224 37.4138 11.2516 37.4868 11.2791C37.6287 11.3325 37.7686 11.385 37.9056 11.4395C38.4962 11.6743 39.0342 11.9452 39.4389 12.4886ZM34.9361 10.1986C34.8436 10.1927 34.7511 10.1879 34.6585 10.1841C34.0493 9.83801 33.4571 9.29989 32.9294 8.42827C32.2175 7.25212 31.6201 5.46371 31.2664 2.7114C31.2343 2.46057 31.0536 2.25383 30.8009 2.08326C30.5453 1.91072 30.1911 1.75801 29.7604 1.62208C29.4711 1.53078 29.1435 1.44595 28.7823 1.36748C29.0616 1.36136 29.3237 1.35783 29.568 1.36343C30.0633 1.37477 30.4583 1.42388 30.7467 1.55291C31.0235 1.67685 31.2028 1.87455 31.2753 2.20723C32.2824 6.83794 33.6059 9.02938 34.9361 10.1986ZM36.1318 11.0158C36.1684 11.035 36.205 11.0536 36.2414 11.0718C35.359 10.9215 34.438 10.9112 33.5326 10.9896C31.514 11.1645 29.5479 11.7822 28.2001 12.3061C28.2472 12.0721 28.2704 11.8048 28.2738 11.5113C29.6042 11.05 31.4513 10.593 33.335 10.4874C33.7508 10.464 34.1673 10.4579 34.5796 10.4724C34.7821 10.5832 34.9865 10.675 35.1913 10.7519C35.5057 10.8697 35.8219 10.9525 36.1318 11.0158ZM27.9857 11.3049C27.9803 11.0212 27.9581 10.7096 27.9211 10.3745C27.9087 10.2635 27.8949 10.1502 27.8795 10.0349C27.8723 10.5487 27.8288 11.0112 27.7383 11.3963C27.8184 11.3659 27.9008 11.3354 27.9857 11.3049ZM27.9843 11.6146C27.9738 11.9669 27.9315 12.2653 27.8523 12.499C27.7709 12.7391 27.7192 13.0763 27.683 13.4764C27.6069 12.9985 27.4912 12.5953 27.349 12.2587C27.4676 12.1206 27.5611 11.9467 27.6343 11.7484C27.7454 11.7043 27.8621 11.6596 27.9843 11.6146ZM27.4617 17.8784C27.3826 18.8212 27.2529 19.7357 27.0206 20.5004C26.9561 20.4993 26.8906 20.4983 26.8243 20.4975C27.1019 19.538 27.3107 18.6675 27.4617 17.8784ZM36.2284 10.7388C36.5277 10.7983 36.8229 10.8398 37.1111 10.8799C36.7541 10.7665 36.384 10.6789 36.0044 10.614C36.0794 10.6579 36.1541 10.6994 36.2284 10.7388ZM26.8511 4.20657C26.704 3.67437 26.5583 3.15922 26.4216 2.67525C26.2846 2.19095 26.1564 1.73725 26.0445 1.32957C26.0861 1.3335 26.1277 1.33719 26.1692 1.34067C26.3951 2.18767 26.6344 3.17571 26.8511 4.20657ZM26.2834 11.3094C26.5313 11.4774 26.7879 11.7577 27.0007 12.1892C26.976 12.2069 26.9505 12.2225 26.9245 12.2359C26.7377 12.3323 26.4823 12.338 26.1273 12.1827C25.682 11.9881 25.4322 11.7863 25.3126 11.6172C25.1961 11.4527 25.2099 11.3344 25.2555 11.2613C25.3075 11.1783 25.4303 11.1033 25.6199 11.095C25.806 11.0868 26.0411 11.1451 26.2834 11.3094ZM0.984392 1.60747C1.14208 1.4806 1.24213 1.46898 1.30469 1.48816C1.37366 1.50931 1.45768 1.58503 1.5421 1.76855C1.61753 1.93251 1.68108 2.15556 1.73417 2.4316C1.49015 2.41831 1.28019 2.39633 1.10662 2.36503C0.860698 2.32066 0.708826 2.26094 0.6325 2.19826C0.597442 2.16947 0.585111 2.1456 0.580733 2.12791C0.576342 2.11016 0.575715 2.0815 0.594779 2.03536C0.635936 1.93576 0.752563 1.79398 0.984392 1.60747ZM4.32705 21.3122C4.30438 20.13 4.73628 19.2785 5.38866 18.7234C6.04483 18.1651 6.93559 17.8974 7.84008 17.9111C9.65739 17.9386 11.4508 19.0899 11.4906 21.1716C11.5107 22.2186 11.0821 23.0176 10.4263 23.5651C9.76702 24.1158 8.87335 24.4154 7.96852 24.4437C7.06363 24.472 6.16094 24.2289 5.48265 23.711C4.8084 23.1963 4.34797 22.4048 4.32705 21.3122Z" fill="#151515"/>
<path d="M9.49482 21.7651C9.3914 22.2048 9.10438 22.6278 8.73076 22.9132C8.35718 23.1984 7.91293 23.335 7.49457 23.2341C7.07377 23.1326 6.70425 22.7971 6.46503 22.361C6.22597 21.925 6.12983 21.4112 6.23172 20.9779C6.33161 20.5532 6.66292 20.1803 7.09434 19.9391C7.52542 19.6979 8.03403 19.6013 8.46321 19.7047C9.30197 19.9071 9.70714 20.8621 9.49482 21.7651Z" stroke="#151515" stroke-width="0.3"/>
<path d="M34.9744 19.923C35.2235 20.2957 35.3264 20.7901 35.2706 21.2573C35.2149 21.7246 35.0034 22.1468 34.6449 22.3924C34.2845 22.6394 33.7797 22.7027 33.2917 22.601C32.8037 22.4995 32.359 22.2387 32.1146 21.8728C31.8755 21.5152 31.845 21.0074 31.9812 20.5084C32.1171 20.0103 32.4111 19.552 32.7779 19.3006C33.4919 18.8113 34.4608 19.1543 34.9744 19.923Z" stroke="#151515" stroke-width="0.3"/>
<path d="M8.99972 21.4181C9.0075 21.7878 8.85199 22.1846 8.58962 22.4903C8.32727 22.7956 7.97378 22.9931 7.59478 22.9998C7.21269 23.0066 6.81811 22.8199 6.51123 22.5212C6.20466 22.2228 6.00781 21.8341 6.0002 21.4718C5.99278 21.119 6.1953 20.755 6.51882 20.4718C6.84201 20.1889 7.26327 20.0072 7.656 20.0002C8.41655 19.9865 8.9836 20.6509 8.99972 21.4181Z" stroke="#151515" stroke-width="0.3"/>
<path d="M34.2759 19.8747C34.5144 20.0875 34.6972 20.4787 34.7601 20.8916C34.8233 21.3072 34.7585 21.698 34.5598 21.9259C34.355 22.1611 34.0178 22.2876 33.6565 22.2938C33.2956 22.3 32.9359 22.1854 32.6972 21.9721C32.4648 21.7645 32.3401 21.4232 32.334 21.0573C32.3278 20.6915 32.4411 20.3275 32.6516 20.0856C33.0923 19.5797 33.8088 19.4573 34.2759 19.8747Z" stroke="#151515" stroke-width="0.3"/>
<path d="M8.31786 9.62821C9.95256 9.63481 11.283 8.29809 11.2895 6.64257C11.2961 4.98706 9.97616 3.63964 8.34146 3.63304C6.70677 3.62644 5.37631 4.96316 5.36979 6.61867C5.36328 8.27419 6.68317 9.62161 8.31786 9.62821Z" fill="#151515"/>
<path d="M2.08391 6.10084C4.48931 7.72534 5.41618 5.86513 6.18473 6.11741C7.57076 6.57233 5.43708 7.79723 7.82954 8.23306C10.222 8.6689 9.88956 6.25255 9.83368 5.9682C9.77779 5.68387 9.75162 5.08711 8.6405 4.96899C7.52938 4.85084 6.87357 4.90502 6.89794 5.95635C6.92229 7.0077 6.14588 8.76609 9.71184 7.95654C10.3399 7.70339 10.6061 5.23262 9.09732 4.77193C7.7015 4.56742 6.3865 5.54997 6.4674 6.7152C6.54833 7.88041 3.39999 5.96002 2.08105 6.82743" stroke="#151515" stroke-width="0.2"/>
<mask id="mask0_213_211" style="mask-type:alpha" maskUnits="userSpaceOnUse" x="5" y="3" width="7" height="7">
<path d="M8.31811 9.62821C9.9528 9.63481 11.2833 8.29809 11.2898 6.64257C11.2963 4.98706 9.9764 3.63964 8.34171 3.63304C6.70702 3.62644 5.37655 4.96316 5.37004 6.61867C5.36352 8.27419 6.68342 9.62161 8.31811 9.62821Z" fill="#151515"/>
</mask>
<g mask="url(#mask0_213_211)">
<path d="M2.08293 6.10089C4.48833 7.72538 5.4152 5.86518 6.18376 6.11744C7.56979 6.57238 5.4361 7.79727 7.82856 8.2331C10.221 8.66895 9.88858 6.2526 9.8327 5.96825C9.77681 5.6839 9.75064 5.08716 8.63952 4.96902C7.5284 4.85089 6.87259 4.90506 6.89694 5.95639C6.92131 7.00774 6.1449 8.76614 9.71085 7.95659C10.3389 7.70344 10.6051 5.23266 9.09635 4.77198C7.70053 4.56747 6.38552 5.55002 6.46643 6.71524C6.54735 7.88045 3.39901 5.96006 2.08008 6.82747" stroke="white" stroke-width="0.2"/>
</g>
</svg>
