<svg width="25" height="45" viewBox="0 0 25 45" fill="none" xmlns="http://www.w3.org/2000/svg">
<path d="M5.30327 13.5088C8.25263 5.79114 14.2656 4.83541 19.1281 9.7459C23.681 14.3438 9.08192 15.815 9.42485 26.1964C9.42485 27.4862 8.17047 28.1382 8.81463 28.6147M5.30327 13.5088C4.46636 15.6988 0.806564 13.5088 3.063 6.6964C6.08086 -4.64116 22.635 3.31609 23.5348 10.1397C24.4814 17.3188 14.3304 17.6598 14.3304 23.5713C14.3304 28.6231 10.4558 29.8287 8.81463 28.6147M5.30327 13.5088C5.99715 10.766 8.85951 4.11507 12.7064 4.60858C17.5149 5.22547 21.1889 8.17736 19.1281 11.6045C17.0673 15.0317 8.47 15.1688 8.08051 24.6278C7.99608 26.6784 8.32285 27.8547 8.81463 28.6147M5.30327 13.5088C4.30491 17.4554 -2.27017 13.5088 3.06302 5.54113C6.65608 0.173174 22.2946 -0.628341 23.8746 9.03627C25.4545 18.7009 11.5447 17.677 13.6259 23.6949C15.5754 29.3317 10.5913 31.3607 8.81463 28.6147M8.81463 28.6147C10.8929 30.0016 8.4303 36.4583 13.0939 35.1298C20.6867 32.967 10.51 28.6147 14.3304 35.7467C18.1507 42.8788 14.4047 43.5841 11.1761 42.1447C7.94746 40.7053 12 38.103 14.254 40.4498M14.254 40.4498C16.5079 42.7966 12.1522 45.7464 9.80114 42.6961C7.06058 39.1404 13.5286 35.172 14.254 40.4498Z" stroke="#151515" stroke-width="1.15"/>
</svg>
